<?xml version="1.0" encoding="UTF-8"?>
<svg version="1.1" xmlns="http://www.w3.org/2000/svg" width="800" height="533">
<path d="M0 0 C264 0 528 0 800 0 C800 175.89 800 351.78 800 533 C536 533 272 533 0 533 C0 357.11 0 181.22 0 0 Z " fill="#FDF9F8" transform="translate(0,0)"/>
<path d="M0 0 C6.14330314 4.84471874 10.3775925 10.58665573 13 18 C13 22 13 22 11.5 23.75 C10.7575 24.36875 10.7575 24.36875 10 25 C16.87777429 25.25809092 22.72290552 24.36303652 29.375 22.6875 C39.52698008 20.25529061 49.66144571 18.42115276 60 17 C61.35351562 16.80083984 61.35351562 16.80083984 62.734375 16.59765625 C76.08842204 14.91688826 89.61824683 15.86009531 102.9375 17.3125 C104.06929687 17.43012695 105.20109375 17.54775391 106.3671875 17.66894531 C107.43066406 17.79495117 108.49414062 17.92095703 109.58984375 18.05078125 C110.53722412 18.16075439 111.48460449 18.27072754 112.46069336 18.3840332 C115.27131295 19.06581315 116.83210751 20.12065028 119 22 C118.44127197 21.93216309 117.88254395 21.86432617 117.30688477 21.79443359 C95.62376623 19.37429668 75.11741091 20.75408206 54 26 C51.81783606 26.53307522 49.63554232 27.06561934 47.453125 27.59765625 C44.22463445 28.38529828 40.9962223 29.17303212 37.76953125 29.96801758 C29.52568139 31.96531337 21.4509688 33.26966936 13 34 C11.79988281 34.10957031 10.59976563 34.21914062 9.36328125 34.33203125 C6.57648815 34.57478326 3.79007453 34.79919918 1 35 C3.64 35 6.28 35 9 35 C9.33 35.99 9.66 36.98 10 38 C24.80898025 37.00779832 39.35822965 35.16063617 53.99414062 32.76489258 C65.8450695 30.82625117 77.03748962 29.79957625 89.0625 29.8125 C90.09106613 29.81141235 90.09106613 29.81141235 91.14041138 29.81030273 C101.22435367 29.81148271 111.06184303 30.19599095 121 32 C121 32.33 121 32.66 121 33 C119.93193115 33.01401855 119.93193115 33.01401855 118.84228516 33.02832031 C101.24842405 33.31531437 84.30179543 34.80317083 67 38 C65.99710938 38.18530273 64.99421875 38.37060547 63.9609375 38.56152344 C54.21393884 39.96060584 54.21393884 39.96060584 45 43 C43.12943209 43.2275015 41.25314042 43.40962811 39.375 43.5625 C38.37210938 43.64628906 37.36921875 43.73007813 36.3359375 43.81640625 C35.56507813 43.87699219 34.79421875 43.93757813 34 44 C39.16881303 45.70701065 43.79520973 46.28444624 49.25 46.23046875 C50.41366089 46.22978142 50.41366089 46.22978142 51.60083008 46.2290802 C53.23797134 46.22607347 54.87511015 46.2182348 56.51220703 46.20581055 C58.9652776 46.18775556 61.41796412 46.18530003 63.87109375 46.18554688 C73.62023624 46.16302727 83.28168133 45.78897785 93 45 C90.29030369 46.4741203 87.95378932 47.33788323 84.91015625 47.81640625 C84.12447266 47.94080078 83.33878906 48.06519531 82.52929688 48.19335938 C81.30823242 48.37608398 81.30823242 48.37608398 80.0625 48.5625 C79.28326172 48.68818359 78.50402344 48.81386719 77.70117188 48.94335938 C65.62656484 50.80774898 53.57597449 51.17642055 41.375 51.125 C40.67146393 51.12278442 39.96792786 51.12056885 39.24307251 51.11828613 C13.42806911 51.02327727 -12.06205322 49.22310013 -37 42 C-37.90314941 41.7431543 -38.80629883 41.48630859 -39.73681641 41.22167969 C-57.84755991 36.06570098 -57.84755991 36.06570098 -65.25 33.61328125 C-88.16614497 26.04617921 -111.2789228 22.86721181 -135.3125 22.75 C-135.9926416 22.7445517 -136.6727832 22.73910339 -137.37353516 22.73348999 C-145.48577851 22.68510366 -153.23196086 23.11680478 -161.21948242 24.57128906 C-163.86558845 24.97927591 -166.32823083 25.07697334 -169 25 C-153.41235881 16.22249331 -130.15623741 17.59934833 -112.8125 17.625 C-111.30885895 17.62282471 -111.30885895 17.62282471 -109.77484131 17.62060547 C-92.87499694 17.6232983 -76.62202161 18.84110178 -60 22 C-59.89816406 20.948125 -59.79632813 19.89625 -59.69140625 18.8125 C-57.87691466 8.80716785 -49.3522768 1.97989813 -41.5625 -3.8125 C-27.79284731 -10.19355856 -12.08511815 -8.82432132 0 0 Z " fill="#F1F5F5" transform="translate(423,170)"/>
<path d="M0 0 C5.92118715 3.95920649 8.88833735 8.8194717 10.6875 15.625 C11.44157029 22.6629894 9.39753783 27.86687448 5.75 33.75 C0.53806708 39.58544636 -8.49724047 43.22699074 -16.1953125 43.86328125 C-25.54117438 44.07722267 -32.75205237 42.688394 -40.1875 36.8125 C-45.8647403 31.37684439 -47.55081499 27.45961024 -47.75 19.625 C-47.47856186 11.8519986 -46.4765389 7.44423236 -40.75 1.9375 C-28.44251846 -7.99799419 -13.3554601 -7.78250157 0 0 Z " fill="#F9F8F7" transform="translate(293.3125,269.375)"/>
<path d="M0 0 C6.14330314 4.84471874 10.3775925 10.58665573 13 18 C13 19.32 13 20.64 13 22 C10.66840696 22.65272461 8.33502204 23.29725202 6 23.9375 C5.35160156 24.11990234 4.70320313 24.30230469 4.03515625 24.49023438 C-17.87993998 30.45721602 -38.05195001 26.60919386 -59 19 C-57.11561015 8.63639147 -49.69031092 2.23125684 -41.5625 -3.8125 C-27.79284731 -10.19355856 -12.08511815 -8.82432132 0 0 Z " fill="#95ABB5" transform="translate(423,170)"/>
<path d="M0 0 C2.97042788 0.00315487 5.93985082 -0.02037823 8.91015625 -0.0456543 C25.98349299 -0.10323707 42.29077427 2.00147281 58.86328125 6.12817383 C59.91829834 6.3853418 60.97331543 6.64250977 62.06030273 6.9074707 C68.97842381 8.63581825 75.69957927 10.7018944 82.42456055 13.06054688 C92.49376016 16.53577746 102.87559881 18.89352729 113.23828125 21.31567383 C114.07504395 21.51435059 114.91180664 21.71302734 115.77392578 21.91772461 C121.23666486 23.20168734 126.7141003 24.32897723 132.23828125 25.31567383 C133.08100586 25.46665527 133.92373047 25.61763672 134.79199219 25.77319336 C148.28584691 28.07176068 161.64638135 28.58273031 175.30078125 28.56567383 C176.08088562 28.56498901 176.86098999 28.5643042 177.66473389 28.56359863 C187.89320642 28.5339626 198.04092463 28.12342244 208.23828125 27.31567383 C205.52858494 28.78979413 203.19207057 29.65355706 200.1484375 30.13208008 C198.96991211 30.31867188 198.96991211 30.31867188 197.76757812 30.5090332 C196.95353516 30.63084961 196.13949219 30.75266602 195.30078125 30.87817383 C194.52154297 31.00385742 193.74230469 31.12954102 192.93945312 31.2590332 C180.86484609 33.12342281 168.81425574 33.49209438 156.61328125 33.44067383 C155.90974518 33.43845825 155.20620911 33.43624268 154.48135376 33.43395996 C128.66635036 33.3389511 103.17622803 31.53877396 78.23828125 24.31567383 C77.33513184 24.05882812 76.43198242 23.80198242 75.50146484 23.53735352 C57.39072134 18.38137481 57.39072134 18.38137481 49.98828125 15.92895508 C27.07213628 8.36185304 3.95935845 5.18288564 -20.07421875 5.06567383 C-20.75436035 5.06022552 -21.43450195 5.05477722 -22.13525391 5.04916382 C-30.24749726 5.00077749 -37.99367961 5.43247861 -45.98120117 6.88696289 C-48.6273072 7.29494974 -51.08994958 7.39264717 -53.76171875 7.31567383 C-38.82009755 -1.09805462 -16.64468277 -0.03681245 0 0 Z " fill="#4C6A73" transform="translate(307.76171875,187.684326171875)"/>
<path d="M0 0 C1.5193364 -0.00110275 1.5193364 -0.00110275 3.06936646 -0.00222778 C21.24269399 0.03224857 38.32541532 1.6511899 56.125 5.4375 C57.09895721 5.64400177 57.09895721 5.64400177 58.09259033 5.85467529 C66.59878311 7.66536997 75.06966412 9.61490914 83.53613281 11.60302734 C103.38599717 16.21845839 122.36767574 19.29934513 142.72119141 19.97583008 C150.36230968 20.26915865 157.91049045 20.94640792 165.5 21.875 C167.05182983 22.05857056 167.05182983 22.05857056 168.63500977 22.24584961 C169.58819092 22.36968018 170.54137207 22.49351074 171.5234375 22.62109375 C172.36567871 22.72993896 173.20791992 22.83878418 174.07568359 22.95092773 C176.125 23.4375 176.125 23.4375 178.125 25.4375 C168.20468125 25.50774127 158.28442392 25.56068052 148.36390495 25.59293652 C143.75488225 25.60843613 139.14603255 25.62937787 134.53710938 25.66381836 C109.07802166 25.84891713 85.34051945 25.11028059 60.69287109 18.14648438 C31.85728913 10.18503448 3.79720093 4.17611323 -26.25 4.375 C-27.58333161 4.38003573 -28.91666511 4.3845949 -30.25 4.38867188 C-33.45838361 4.40029645 -36.66666551 4.41663331 -39.875 4.4375 C-28.86576937 -1.84431497 -12.27855474 -0.00388558 0 0 Z " fill="#7E9B98" transform="translate(303.875,204.5625)"/>
<path d="M0 0 C4.14422261 -0.09953791 8.28779575 -0.17177901 12.43286133 -0.21972656 C13.84021134 -0.23973246 15.24747938 -0.26694662 16.65454102 -0.30175781 C31.20335949 -0.65245602 31.20335949 -0.65245602 37 4 C39.95147666 7.32041125 40.94925188 9.05270173 41.1875 13.5 C39.60398067 18.16721486 37.18776275 20.48053298 33 23 C29.5625 23.875 29.5625 23.875 27 24 C27 24.66 27 25.32 27 26 C27.66 26 28.32 26 29 26 C30.48046875 27.46875 30.48046875 27.46875 32.1875 29.5 C33.11369141 30.58861328 33.11369141 30.58861328 34.05859375 31.69921875 C34.69925781 32.45847656 35.33992187 33.21773438 36 34 C37.2466514 35.44040499 38.49651158 36.87804086 39.75 38.3125 C40.30171875 38.94800781 40.8534375 39.58351563 41.421875 40.23828125 C42.89703084 41.88505175 44.42045848 43.45376207 46 45 C44.27305325 45.13609913 42.54295278 45.23249228 40.8125 45.3125 C39.84957031 45.37050781 38.88664063 45.42851562 37.89453125 45.48828125 C32.25253418 44.53652736 29.40498729 39.28686852 26.10473633 34.98706055 C21.98467808 29.47840792 21.98467808 29.47840792 16.28515625 25.93359375 C13.59084781 25.59052646 13.59084781 25.59052646 10 26 C10 31.94 10 37.88 10 44 C10.66 44.33 11.32 44.66 12 45 C7.38 45 2.76 45 -2 45 C-1.34 44.01 -0.68 43.02 0 42 C0.28807713 40.00239911 0.28807713 40.00239911 0.22705078 37.80395508 C0.22689972 36.96331009 0.22674866 36.1226651 0.22659302 35.25654602 C0.21627045 34.35333115 0.20594788 33.45011627 0.1953125 32.51953125 C0.19106766 31.12754768 0.19106766 31.12754768 0.18673706 29.70744324 C0.17553836 26.74233121 0.15043435 23.77752079 0.125 20.8125 C0.1149698 18.80273874 0.10584402 16.79297274 0.09765625 14.78320312 C0.07560004 9.85535247 0.04107229 4.92772738 0 0 Z " fill="#5D7582" transform="translate(503,266)"/>
<path d="M0 0 C4.51547178 -0.71587269 8.50883849 -0.96392489 13 0 C16.57337884 3.31550614 18.4564273 7.2722824 20.5625 11.625 C21.70900113 13.80502119 22.8561184 15.98471849 24.00390625 18.1640625 C24.51969238 19.18790039 25.03547852 20.21173828 25.56689453 21.26660156 C26.73815529 23.50057694 27.95223611 25.52997603 29.40234375 27.5859375 C31 30 31 30 31 33 C33.59274692 30.66119172 35.10592247 28.24935306 36.7421875 25.17578125 C37.50595703 23.75555664 37.50595703 23.75555664 38.28515625 22.30664062 C38.80980469 21.31857422 39.33445312 20.33050781 39.875 19.3125 C41.89398242 15.52879603 43.93884584 11.76085905 46 8 C46.42079834 7.1838623 46.84159668 6.36772461 47.27514648 5.52685547 C48.39747028 3.48910033 49.43187454 1.7180198 51 0 C54.11328125 -0.78125 54.11328125 -0.78125 57.3125 -0.5 C58.91544922 -0.39171875 58.91544922 -0.39171875 60.55078125 -0.28125 C61.76314453 -0.14203125 61.76314453 -0.14203125 63 0 C62.34 0.66 61.68 1.32 61 2 C60.08571886 11.6940692 61.15733425 21.69828875 61.875 31.375 C61.95331055 32.48689697 62.03162109 33.59879395 62.11230469 34.74438477 C62.19641602 35.78522217 62.28052734 36.82605957 62.3671875 37.8984375 C62.44050293 38.83349121 62.51381836 39.76854492 62.58935547 40.73193359 C62.81234472 43.19222298 62.81234472 43.19222298 65 45 C60.71 45 56.42 45 52 45 C52.02320313 43.73027344 52.04640625 42.46054687 52.0703125 41.15234375 C52.20247132 30.5589887 51.77419344 20.45506851 50 10 C43.17798394 21.1149929 36.5535234 32.18898545 31 44 C30.01 44 29.02 44 28 44 C26.46948242 41.95556641 26.46948242 41.95556641 24.85546875 39.1015625 C24.26056641 38.06386719 23.66566406 37.02617187 23.05273438 35.95703125 C22.12944336 34.30767578 22.12944336 34.30767578 21.1875 32.625 C19.97320109 30.49187726 18.75836244 28.35906166 17.54296875 26.2265625 C16.95435059 25.18661133 16.36573242 24.14666016 15.75927734 23.07519531 C13.24191218 18.67487174 10.63297994 14.3318919 8 10 C7.07226123 17.35174504 6.69807851 24.65950727 6.4375 32.0625 C6.39431641 33.21427734 6.35113281 34.36605469 6.30664062 35.55273438 C6.20149148 38.36839491 6.09934607 41.18412976 6 44 C6.99 44.33 7.98 44.66 9 45 C5.37 45 1.74 45 -2 45 C-1.01 44.01 -0.02 43.02 1 42 C1.59467183 39.64558507 1.59467183 39.64558507 1.73046875 36.984375 C1.81143799 35.98688232 1.89240723 34.98938965 1.97583008 33.96166992 C2.04568115 32.90181885 2.11553223 31.84196777 2.1875 30.75 C2.26572998 29.67274658 2.34395996 28.59549316 2.42456055 27.4855957 C3.51670919 15.22598465 3.51670919 15.22598465 3 3 C1.53422673 1.33655167 1.53422673 1.33655167 0 0 Z " fill="#58707D" transform="translate(363,266)"/>
<path d="M0 0 C4.24325364 -1.03916416 4.24325364 -1.03916416 7 0 C9.91822954 3.67923337 11.89807159 7.81578738 14 12 C14.93227647 13.6903914 15.8696077 15.37800702 16.8125 17.0625 C17.87939198 19.03930258 18.94106695 21.01892258 20 23 C20.40750488 23.75925781 20.81500977 24.51851563 21.23486328 25.30078125 C22.61995574 27.8853608 23.99825479 30.47346555 25.375 33.0625 C25.8285083 33.9088501 26.2820166 34.7552002 26.74926758 35.62719727 C27.16974365 36.42182373 27.59021973 37.2164502 28.0234375 38.03515625 C28.40419434 38.7506665 28.78495117 39.46617676 29.17724609 40.20336914 C30 42 30 42 30 44 C30.99 44.33 31.98 44.66 33 45 C33 45.33 33 45.66 33 46 C28.38 46 23.76 46 19 46 C18.505 43.03 18.505 43.03 18 40 C16.68 37.36 15.36 34.72 14 32 C5.75 32 -2.5 32 -11 32 C-13.13290367 36.97677524 -14.38170447 39.92997663 -15 45 C-14.34 45.33 -13.68 45.66 -13 46 C-16.63 46 -20.26 46 -24 46 C-23.42765625 45.33613281 -22.8553125 44.67226563 -22.265625 43.98828125 C-19.65919127 40.55048504 -17.72252758 37.01172584 -15.75 33.1875 C-15.36376465 32.44701416 -14.9775293 31.70652832 -14.57958984 30.94360352 C-13.37879843 28.63290067 -12.18802658 26.31728844 -11 24 C-10.62198242 23.26587891 -10.24396484 22.53175781 -9.85449219 21.77539062 C-8.77130949 19.6660849 -7.69620816 17.55290896 -6.625 15.4375 C-6.30370117 14.80803467 -5.98240234 14.17856934 -5.65136719 13.5300293 C-3.44166052 9.11819942 -1.67240988 4.64273296 0 0 Z " fill="#61747C" transform="translate(459,265)"/>
<path d="M0 0 C5.92118715 3.95920649 8.88833735 8.8194717 10.6875 15.625 C11.44157029 22.6629894 9.39753783 27.86687448 5.75 33.75 C0.53806708 39.58544636 -8.49724047 43.22699074 -16.1953125 43.86328125 C-25.54117438 44.07722267 -32.75205237 42.688394 -40.1875 36.8125 C-45.8647403 31.37684439 -47.55081499 27.45961024 -47.75 19.625 C-47.47856186 11.8519986 -46.4765389 7.44423236 -40.75 1.9375 C-28.44251846 -7.99799419 -13.3554601 -7.78250157 0 0 Z M-34.625 4.125 C-38.78488391 10.28779099 -39.01492098 15.25402539 -38.3125 22.625 C-36.66858891 30.23424114 -33.91096588 35.3668767 -27.3125 39.625 C-22.53156457 42.01546771 -15.04557974 41.48906645 -10.0390625 39.90625 C-5.07833001 37.22008918 -2.16483593 33.71322303 -0.0625 28.5625 C1.58306811 21.63299757 1.93230037 14.24628213 -1.25 7.75 C-4.34248857 3.00760831 -8.03172546 -0.2706312 -13.3125 -2.375 C-22.11130067 -3.85100167 -28.49673504 -2.50015131 -34.625 4.125 Z " fill="#5D7581" transform="translate(293.3125,269.375)"/>
<path d="M0 0 C0 2.97 0 5.94 0 9 C-0.556875 8.236875 -1.11375 7.47375 -1.6875 6.6875 C-4.74707087 3.1317825 -7.24699573 1.21423048 -11.97265625 0.63671875 C-12.99230469 0.65347656 -14.01195312 0.67023438 -15.0625 0.6875 C-16.08472656 0.69136719 -17.10695312 0.69523437 -18.16015625 0.69921875 C-20.99366169 0.99932868 -22.68462598 1.35231523 -25 3 C-25.91214879 6.85909105 -26.26132231 9.21603308 -25 13 C-23.04309081 13.89082552 -23.04309081 13.89082552 -20.625 14.4375 C-3.08151666 19.30650682 -3.08151666 19.30650682 3 26 C4.5547669 29.10953379 4.28644437 31.56266761 4 35 C1.36287048 40.60390023 -2.36177486 42.95259981 -8 45 C-17.38690474 47.30850589 -26.00208328 46.17573531 -35 43 C-35 39.37 -35 35.74 -35 32 C-34.443125 32.7425 -33.88625 33.485 -33.3125 34.25 C-30.26649201 37.87227977 -27.52272135 40.49242622 -23 42 C-21.21120198 42.1190686 -19.4177144 42.17522113 -17.625 42.1875 C-16.68914062 42.20167969 -15.75328125 42.21585937 -14.7890625 42.23046875 C-11.77558317 41.98145575 -9.6821075 41.38713807 -7 40 C-4.88573402 37.176982 -4.88573402 37.176982 -4.25 34.1875 C-5.17245367 30.26707189 -6.04988875 29.9076328 -9.375 27.8125 C-13.69612751 25.45941076 -17.94043338 23.98269726 -22.671875 22.703125 C-27.22596204 21.32772959 -30.83547824 19.38991307 -33.9375 15.6875 C-35.32442932 12.17938466 -35.46804438 9.74435501 -35 6 C-32.36825858 1.7112362 -29.05720991 -1.02817168 -24.23046875 -2.5625 C-15.79530174 -4.21703363 -7.87247577 -3.20236303 0 0 Z " fill="#5C7481" transform="translate(233,267)"/>
<path d="M0 0 C1.13179687 0.11762695 2.26359375 0.23525391 3.4296875 0.35644531 C5.02490234 0.5454541 5.02490234 0.5454541 6.65234375 0.73828125 C8.07341431 0.90324097 8.07341431 0.90324097 9.52319336 1.0715332 C12.33381295 1.75331315 13.89460751 2.80815028 16.0625 4.6875 C15.50377197 4.61966309 14.94504395 4.55182617 14.36938477 4.48193359 C-7.32766752 2.06024148 -27.80468982 3.46715334 -48.9375 8.6875 C-51.21323063 9.23306989 -53.48927962 9.77731331 -55.765625 10.3203125 C-59.05370165 11.10595289 -62.33923323 11.89719818 -65.6184082 12.71923828 C-75.66807773 15.22104421 -85.06840522 15.87401393 -95.40112305 15.87280273 C-97.49873886 15.87499868 -99.59583551 15.89323485 -101.69335938 15.91210938 C-103.04687323 15.91504268 -104.40038954 15.9170279 -105.75390625 15.91796875 C-106.96506104 15.92207764 -108.17621582 15.92618652 -109.42407227 15.93041992 C-113.25083846 15.66583564 -116.30127197 14.86213812 -119.9375 13.6875 C-119.9375 13.3575 -119.9375 13.0275 -119.9375 12.6875 C-119.01453125 12.66171875 -118.0915625 12.6359375 -117.140625 12.609375 C-102.93876773 11.99190294 -89.47143278 8.98138022 -75.65966797 5.77148438 C-64.80305414 3.25102905 -53.97931177 1.20532356 -42.9375 -0.3125 C-42.03515625 -0.44527344 -41.1328125 -0.57804688 -40.203125 -0.71484375 C-26.84907796 -2.39561174 -13.31925317 -1.45240469 0 0 Z " fill="#A4B8B5" transform="translate(525.9375,187.3125)"/>
<path d="M0 0 C12.54 0 25.08 0 38 0 C38 2.97 38 5.94 38 9 C36.53515625 7.73046875 35.0703125 6.4609375 33.60546875 5.19140625 C30.82065029 3.12481348 28.12110918 2.84998414 24.76953125 2.68359375 C24.04612549 2.64548584 23.32271973 2.60737793 22.57739258 2.56811523 C21.66497803 2.52501221 20.75256348 2.48190918 19.8125 2.4375 C16.904375 2.293125 13.99625 2.14875 11 2 C11 8.27 11 14.54 11 21 C15.1146875 20.8453125 15.1146875 20.8453125 19.3125 20.6875 C20.17270752 20.66260498 21.03291504 20.63770996 21.91918945 20.61206055 C22.60198975 20.57894775 23.28479004 20.54583496 23.98828125 20.51171875 C24.68477783 20.48553467 25.38127441 20.45935059 26.09887695 20.43237305 C28.49749535 19.88685447 29.3478542 18.76485214 31 17 C31.66 17 32.32 17 33 17 C33 20.3 33 23.6 33 27 C32.34 27 31.68 27 31 27 C30.34 26.01 29.68 25.02 29 24 C27.07558585 23.49468134 27.07558585 23.49468134 24.8671875 23.48828125 C24.14128418 23.45516846 23.41538086 23.42205566 22.66748047 23.38793945 C21.28520264 23.35059692 21.28520264 23.35059692 19.875 23.3125 C16.94625 23.209375 14.0175 23.10625 11 23 C11.33 28.94 11.66 34.88 12 41 C15.35067949 42.67533975 19.06918792 42.26881948 22.75 42.3125 C23.54921875 42.34150391 24.3484375 42.37050781 25.171875 42.40039062 C30.66016179 42.45906474 33.59755808 41.55226975 38 38 C38.99 37.34 39.98 36.68 41 36 C40.67 38.97 40.34 41.94 40 45 C26.8 45 13.6 45 0 45 C0.66 44.01 1.32 43.02 2 42 C2.19635331 39.06136892 2.27998972 36.21980035 2.265625 33.28125 C2.26753845 32.42696411 2.2694519 31.57267822 2.27142334 30.69250488 C2.27278387 28.88695989 2.26909664 27.08140508 2.26074219 25.27587891 C2.25004071 22.5105189 2.26064184 19.74580853 2.2734375 16.98046875 C2.27211588 15.22656106 2.26955344 13.47265378 2.265625 11.71875 C2.26967346 10.89056763 2.27372192 10.06238525 2.27789307 9.20910645 C2.24589123 5.2958845 2.2193324 3.32899859 0 0 Z " fill="#556C78" transform="translate(560,266)"/>
<path d="M0 0 C0.67240723 0.13575439 1.34481445 0.27150879 2.03759766 0.41137695 C22.30579367 4.47636992 42.16364686 7.96958944 62.85058594 8.58911133 C70.41057426 8.84748287 77.86743383 9.51696296 85.375 10.4375 C86.40995605 10.55996094 87.44491211 10.68242187 88.51123047 10.80859375 C89.46400879 10.93234375 90.41678711 11.05609375 91.3984375 11.18359375 C92.24067871 11.29243896 93.08291992 11.40128418 93.95068359 11.51342773 C96 12 96 12 98 14 C88.07968125 14.07024127 78.15942392 14.12318052 68.23890495 14.15543652 C63.62988225 14.17093613 59.02103255 14.19187787 54.41210938 14.22631836 C2.40678773 14.60452515 2.40678773 14.60452515 -6 9 C-4.35 9 -2.7 9 -1 9 C-0.5978125 7.7934375 -0.5978125 7.7934375 -0.1875 6.5625 C0.204375 5.716875 0.59625 4.87125 1 4 C1.99 3.67 2.98 3.34 4 3 C2.68 2.34 1.36 1.68 0 1 C0 0.67 0 0.34 0 0 Z " fill="#819E9A" transform="translate(384,216)"/>
<path d="M0 0 C6.29659969 0.5288646 11.78177039 1.66175192 17.75 3.6875 C19.42504963 4.23401832 21.1008606 4.77820754 22.77734375 5.3203125 C23.6369873 5.59907227 24.49663086 5.87783203 25.38232422 6.16503906 C53.39259243 15.09948388 81.577934 21.02486867 111 22 C111 22.33 111 22.66 111 23 C109.02 23.33 107.04 23.66 105 24 C105 24.99 105 25.98 105 27 C98.17998071 27.15545499 91.62631913 26.77136675 84.875 25.8125 C83.45719238 25.61394409 83.45719238 25.61394409 82.01074219 25.41137695 C67.60580224 23.30365447 53.43311454 20.05773716 39.27392578 16.71069336 C37.65333252 16.32796265 37.65333252 16.32796265 36 15.9375 C34.40067627 15.55960327 34.40067627 15.55960327 32.76904297 15.17407227 C21.60087001 12.58673666 10.32998601 10.72097142 -1 9 C-1 8.67 -1 8.34 -1 8 C-0.195625 7.87625 0.60875 7.7525 1.4375 7.625 C2.283125 7.41875 3.12875 7.2125 4 7 C4.33 6.34 4.66 5.68 5 5 C3.35 3.35 1.7 1.7 0 0 Z " fill="#F1F5F5" transform="translate(337,198)"/>
<path d="M0 0 C1.02856613 -0.00108765 1.02856613 -0.00108765 2.07791138 -0.00219727 C12.16185367 -0.00101729 21.99934303 0.38349095 31.9375 2.1875 C31.9375 2.5175 31.9375 2.8475 31.9375 3.1875 C31.2254541 3.1968457 30.5134082 3.20619141 29.77978516 3.21582031 C9.45100183 3.54742689 -10.10514318 5.52254302 -29.96704102 9.89892578 C-47.40304958 13.70007559 -63.63249027 12.49999054 -81.0625 9.1875 C-81.0625 8.8575 -81.0625 8.5275 -81.0625 8.1875 C-80.47275391 8.15309814 -79.88300781 8.11869629 -79.27539062 8.08325195 C-63.01570664 7.08177218 -47.11577586 4.95569783 -31.0625 2.30859375 C-20.60945974 0.61434072 -10.60356952 -0.01139607 0 0 Z " fill="#99B0AD" transform="translate(512.0625,199.8125)"/>
<path d="M0 0 C13.76139065 11.20113193 22.69503442 26.13065179 25.375 43.75 C25.44033435 45.68651019 25.46084303 47.62502861 25.4375 49.5625 C25.42847656 50.53832031 25.41945313 51.51414062 25.41015625 52.51953125 C25.39275391 53.62361328 25.39275391 53.62361328 25.375 54.75 C24.385 54.75 23.395 54.75 22.375 54.75 C22.33632813 53.47769531 22.33632813 53.47769531 22.296875 52.1796875 C21.36077422 32.81942141 14.73840442 17.08142962 0.375 3.75 C-16.30824484 -9.19052276 -35.10156857 -11.9524366 -55.625 -10.25 C-70.5423334 -7.83837966 -84.4769309 1.81844592 -93.8125 13.5 C-102.58815717 25.95655782 -105.93205818 38.7203309 -106.625 53.75 C-107.285 53.75 -107.945 53.75 -108.625 53.75 C-109.49340638 36.09240366 -104.41921082 21.90508567 -92.93359375 8.2265625 C-67.95677052 -18.56752536 -29.39186264 -21.47672982 0 0 Z " fill="#727F85" transform="translate(441.625,129.25)"/>
<path d="M0 0 C4.62 0 9.24 0 14 0 C13.67 0.66 13.34 1.32 13 2 C12.34 2 11.68 2 11 2 C11.11793339 7.53604375 11.24215781 13.07189613 11.37231445 18.60766602 C11.41572933 20.49239218 11.45739943 22.37715936 11.49731445 24.26196289 C11.55485893 26.96513249 11.61859804 29.66809436 11.68359375 32.37109375 C11.70030624 33.21900986 11.71701874 34.06692596 11.73423767 34.9405365 C11.46409195 38.78292076 11.46409195 38.78292076 13 42 C15.57708556 42.15456568 18.10892521 42.23172843 20.6875 42.25 C21.39583984 42.270625 22.10417969 42.29125 22.83398438 42.3125 C27.67384703 42.34825152 30.71159004 41.44317209 35 39 C35.66 39 36.32 39 37 39 C37 38.34 37 37.68 37 37 C37.99 37.495 37.99 37.495 39 38 C38.34 40.31 37.68 42.62 37 45 C24.46 45 11.92 45 -1 45 C-0.01 44.01 0.98 43.02 2 42 C2.28625677 39.02217871 2.39638391 36.25799218 2.36328125 33.28125 C2.36402901 31.99982117 2.36402901 31.99982117 2.36479187 30.69250488 C2.36245215 28.88693922 2.35272957 27.08137025 2.33618164 25.27587891 C2.31258912 22.51044585 2.31562132 19.74597687 2.32226562 16.98046875 C2.31668878 15.22655675 2.30957886 13.47264881 2.30078125 11.71875 C2.30169266 10.89056763 2.30260406 10.06238525 2.30354309 9.20910645 C2.25523361 5.30208669 2.21522412 3.32283618 0 0 Z " fill="#576F7C" transform="translate(315,266)"/>
<path d="M0 0 C20.32335796 -0.68535319 39.91829436 0.91950177 59.625 6.125 C77.7227843 10.88266495 96.40992823 10.58395582 115 11 C106.83639621 16.44240253 92.84948572 14.23903099 83.1875 14.25 C82.12992996 14.25200912 82.12992996 14.25200912 81.05099487 14.25405884 C70.67029502 14.24979137 61.13618265 13.46067686 51 11 C48.87916225 10.61393255 46.75413459 10.26521033 44.62646484 9.91894531 C38.44425718 8.91225078 32.47262729 7.64914324 26.4375 5.9375 C20.3637656 4.22539695 14.45414916 3.2659794 8.18920898 2.68334961 C4.6971295 2.33631341 2.99327461 1.99551641 0 0 Z " fill="#AFC0BB" transform="translate(317,223)"/>
<path d="M0 0 C8.05156233 -0.36598011 13.16925234 -0.38198907 20 4 C21.73631636 7.47263273 21.60190402 11.21193013 21 15 C18.81840855 17.75569447 17.12822506 19.43588747 14 21 C9.33091139 21.13996069 4.67201378 21.04247285 0 21 C0 14.07 0 7.14 0 0 Z " fill="#F8F8F8" transform="translate(513,268)"/>
<path d="M0 0 C7.08919383 1.44186993 14.05186206 2.98604697 21 5 C44.21708639 11.14569934 68.15358546 10.69139132 92 11 C92 11.33 92 11.66 92 12 C86.06 12.33 80.12 12.66 74 13 C73.67 13.66 73.34 14.32 73 15 C52.83784716 15.3135263 34.74523912 13.80411315 15.1328125 9.17578125 C9.45713439 7.84895881 3.77279201 6.81598537 -2 6 C-2 5.67 -2 5.34 -2 5 C0.31 5 2.62 5 5 5 C3.74458443 2.48916886 2.49936512 2.12874554 0 1 C0 0.67 0 0.34 0 0 Z " fill="#F2F6F5" transform="translate(352,219)"/>
<path d="M0 0 C3.15700804 0.01088027 6.31346639 -0.00003911 9.47045898 -0.01269531 C11.48413211 -0.01137628 13.4978049 -0.00881922 15.51147461 -0.00488281 C16.45199173 -0.00893127 17.39250885 -0.01297974 18.36152649 -0.01715088 C19.23061142 -0.01084656 20.09969635 -0.00454224 20.99511719 0.00195312 C22.13851311 0.0043399 22.13851311 0.0043399 23.30500793 0.0067749 C25.30444336 0.26074219 25.30444336 0.26074219 28.30444336 2.26074219 C25.95005603 3.69019164 24.82411903 4.3473548 22.05444336 3.88574219 C21.47694336 3.67949219 20.89944336 3.47324219 20.30444336 3.26074219 C20.79944336 5.73574219 20.79944336 5.73574219 21.30444336 8.26074219 C18.47103104 7.94894575 15.63771381 7.63632301 12.80444336 7.32324219 C11.6172168 7.19272461 11.6172168 7.19272461 10.40600586 7.05957031 C9.61967773 6.97255859 8.83334961 6.88554687 8.02319336 6.79589844 C7.22051025 6.70816162 6.41782715 6.6204248 5.59082031 6.5300293 C3.6188108 6.29776806 1.65381064 6.00734776 -0.30883789 5.70605469 C-6.25839364 4.95736153 -12.26981631 5.07474931 -18.25683594 5.07543945 C-20.36096816 5.07326501 -22.46456442 5.05509256 -24.56860352 5.03613281 C-32.15743981 5.00569138 -39.44902572 5.45441585 -46.93701172 6.82983398 C-49.57604307 7.24207315 -52.03014379 7.33774909 -54.69555664 7.26074219 C-39.47264429 -1.31138321 -16.91249949 -0.06961529 0 0 Z " fill="#527078" transform="translate(308.695556640625,187.7392578125)"/>
<path d="M0 0 C7.92 0 15.84 0 24 0 C22 2 22 2 19.1796875 2.1953125 C16.11979167 2.13020833 13.05989583 2.06510417 10 2 C10 9.26 10 16.52 10 24 C12.97 24 15.94 24 19 24 C19 24.33 19 24.66 19 25 C15.7 25 12.4 25 9 25 C9 30.28 9 35.56 9 41 C8.67 41 8.34 41 8 41 C7.67 39.35 7.34 37.7 7 36 C6.34 36 5.68 36 5 36 C4.67 27.42 4.34 18.84 4 10 C3.67 19.24 3.34 28.48 3 38 C2.67 38 2.34 38 2 38 C1.97494385 36.99098633 1.9498877 35.98197266 1.92407227 34.94238281 C1.82977591 31.19258304 1.72960979 27.44295892 1.62768555 23.69335938 C1.58442069 22.07165643 1.54273972 20.44991042 1.50268555 18.828125 C1.44477786 16.49465973 1.38114302 14.16140957 1.31640625 11.828125 C1.29969376 11.10506165 1.28298126 10.38199829 1.26576233 9.63702393 C1.16544809 6.21494332 0.83676362 3.34705448 0 0 Z " fill="#586F7C" transform="translate(503,266)"/>
<path d="M0 0 C3.62934679 1.20978226 3.78763536 1.92575781 5.48046875 5.21875 C5.92197266 6.06824219 6.36347656 6.91773438 6.81835938 7.79296875 C7.49608398 9.13294922 7.49608398 9.13294922 8.1875 10.5 C8.65091797 11.39332031 9.11433594 12.28664063 9.59179688 13.20703125 C13 19.8226597 13 19.8226597 13 21 C5.41 21 -2.18 21 -10 21 C-8.75250848 17.8812712 -7.55262243 14.98342838 -6.0546875 12.01171875 C-5.70019531 11.30595703 -5.34570312 10.60019531 -4.98046875 9.87304688 C-4.61566406 9.15181641 -4.25085938 8.43058594 -3.875 7.6875 C-3.50246094 6.94693359 -3.12992187 6.20636719 -2.74609375 5.44335938 C-1.83255194 3.62798783 -0.91652513 1.81386718 0 0 Z " fill="#F0F2F4" transform="translate(459,273)"/>
<path d="M0 0 C14.65955372 -0.29409599 29.17514997 -0.47167411 43.75 1.375 C44.75998047 1.50108643 45.76996094 1.62717285 46.81054688 1.75708008 C53.72374601 2.72374601 53.72374601 2.72374601 56 5 C48.20383922 5.07586402 40.40777307 5.12852114 32.61132812 5.16479492 C29.95732059 5.17991145 27.30333814 5.20040495 24.64941406 5.22631836 C20.841734 5.26257521 17.03438325 5.27969763 13.2265625 5.29296875 C11.43745956 5.31619453 11.43745956 5.31619453 9.61221313 5.33988953 C8.51122284 5.34011612 7.41023254 5.34034271 6.27587891 5.34057617 C5.30325104 5.34723801 4.33062317 5.35389984 3.32852173 5.36076355 C2.17590347 5.18218559 2.17590347 5.18218559 1 5 C0.34 4.01 -0.32 3.02 -1 2 C-0.67 1.34 -0.34 0.68 0 0 Z " fill="#7E9C97" transform="translate(426,225)"/>
<path d="M0 0 C1.69769531 0.17644043 1.69769531 0.17644043 3.4296875 0.35644531 C5.02490234 0.5454541 5.02490234 0.5454541 6.65234375 0.73828125 C7.59972412 0.84825439 8.54710449 0.95822754 9.52319336 1.0715332 C12.33381295 1.75331315 13.89460751 2.80815028 16.0625 4.6875 C15.51464844 4.61748779 14.96679688 4.54747559 14.40234375 4.4753418 C6.62085576 3.58094516 -1.11116359 3.50387442 -8.9375 3.5 C-10.23945312 3.48775391 -11.54140625 3.47550781 -12.8828125 3.46289062 C-19.42519378 3.45297793 -25.51973814 3.68752695 -31.88671875 5.2565918 C-33.9375 5.6875 -33.9375 5.6875 -37.9375 5.6875 C-37.9375 5.0275 -37.9375 4.3675 -37.9375 3.6875 C-38.5975 3.3575 -39.2575 3.0275 -39.9375 2.6875 C-40.9569119 1.70729625 -41.95996356 0.70946992 -42.9375 -0.3125 C-28.55696961 -2.1984712 -14.37463409 -1.56748923 0 0 Z " fill="#B2C2BE" transform="translate(525.9375,187.3125)"/>
<path d="M0 0 C2.53449213 1.61544265 4.43518679 3.48710769 6.52734375 5.64453125 C7.30980469 6.44632812 8.09226562 7.248125 8.8984375 8.07421875 C9.62160156 8.81929688 10.34476563 9.564375 11.08984375 10.33203125 C12.08766514 11.31341794 13.087138 12.29313556 14.08984375 13.26953125 C16.08984375 15.33203125 16.08984375 15.33203125 17.08984375 17.33203125 C7.19649483 18.11171724 7.19649483 18.11171724 3.33984375 15.39453125 C2.59734375 14.38390625 1.85484375 13.37328125 1.08984375 12.33203125 C0.46851563 11.59597656 -0.1528125 10.85992187 -0.79296875 10.1015625 C-4.55424129 5.58066041 -4.55424129 5.58066041 -5.91015625 3.33203125 C-5.58015625 2.34203125 -5.25015625 1.35203125 -4.91015625 0.33203125 C-1.91015625 -0.66796875 -1.91015625 -0.66796875 0 0 Z " fill="#5B737E" transform="translate(531.91015625,293.66796875)"/>
<path d="M0 0 C0 2.97 0 5.94 0 9 C-0.556875 8.236875 -1.11375 7.47375 -1.6875 6.6875 C-4.74707087 3.1317825 -7.24699573 1.21423048 -11.97265625 0.63671875 C-12.99230469 0.65347656 -14.01195312 0.67023438 -15.0625 0.6875 C-16.08472656 0.69136719 -17.10695312 0.69523437 -18.16015625 0.69921875 C-20.99377011 0.99934016 -22.66378679 1.39084628 -25 3 C-26.29231642 6.04199472 -26.29231642 6.04199472 -27 9 C-27.99 9 -28.98 9 -30 9 C-30.33 8.01 -30.66 7.02 -31 6 C-31.99 8.31 -32.98 10.62 -34 13 C-34.33 13 -34.66 13 -35 13 C-35.31167613 9.02612932 -35.42805011 6.69756315 -33.3125 3.25 C-24.17411323 -5.64140334 -11.12502261 -4.52543293 0 0 Z " fill="#6A7C83" transform="translate(233,267)"/>
<path d="M0 0 C0.556875 0.7425 1.11375 1.485 1.6875 2.25 C4.73350799 5.87227977 7.47727865 8.49242622 12 10 C13.78879802 10.1190686 15.5822856 10.17522113 17.375 10.1875 C18.31085938 10.20167969 19.24671875 10.21585937 20.2109375 10.23046875 C23.24037544 9.98013704 25.32267954 9.43807714 28 8 C29.21526985 6.31953843 29.21526985 6.31953843 29.8125 4.375 C30.204375 3.26125 30.59625 2.1475 31 1 C31.66 1.99 32.32 2.98 33 4 C33.99387334 5.33790641 34.9926892 6.67218122 36 8 C28.05131187 13.96151609 19.75613734 14.86083565 10 14 C6.5356616 13.21758415 3.35860585 12.1853903 0 11 C0 7.37 0 3.74 0 0 Z " fill="#6D8289" transform="translate(198,299)"/>
<path d="M0 0 C1.85625 0.0309375 1.85625 0.0309375 3.75 0.0625 C3.42 1.7125 3.09 3.3625 2.75 5.0625 C-10.00442707 9.31397569 -26.40834099 5.50299628 -39.25 3.0625 C-39.25 2.7325 -39.25 2.4025 -39.25 2.0625 C-29.84637197 1.4249659 -20.53445842 0.94813736 -11.10546875 1.125 C-7.28802085 1.04144437 -3.84645594 -0.0641076 0 0 Z " fill="#89A6A2" transform="translate(470.25,205.9375)"/>
<path d="M0 0 C4.32309978 2.17259699 6.10853918 4.28556311 8.3125 8.5625 C8.82425781 9.53316406 9.33601563 10.50382812 9.86328125 11.50390625 C11 14 11 14 11 16 C11.99 16.33 12.98 16.66 14 17 C14 17.33 14 17.66 14 18 C9.38 18 4.76 18 0 18 C-0.33 16.02 -0.66 14.04 -1 12 C-1.33 11.34 -1.66 10.68 -2 10 C-2.16796875 8.125 -2.16796875 8.125 -2.1875 6 C-2.20167969 5.29875 -2.21585937 4.5975 -2.23046875 3.875 C-2 2 -2 2 0 0 Z " fill="#5D7480" transform="translate(478,293)"/>
<path d="M0 0 C-2.70969631 1.4741203 -5.04621068 2.33788323 -8.08984375 2.81640625 C-8.87552734 2.94080078 -9.66121094 3.06519531 -10.47070312 3.19335938 C-11.28474609 3.31517578 -12.09878906 3.43699219 -12.9375 3.5625 C-13.71673828 3.68818359 -14.49597656 3.81386719 -15.29882812 3.94335938 C-27.78903919 5.87192066 -40.20893172 6.13800459 -52.8125 6.0625 C-54.29492034 6.05746824 -55.77734236 6.05290834 -57.25976562 6.04882812 C-60.8398795 6.0379707 -64.41992843 6.02080135 -68 6 C-68 5.67 -68 5.34 -68 5 C-60.08 4.505 -60.08 4.505 -52 4 C-52 3.34 -52 2.68 -52 2 C-50.92105469 1.97494385 -49.84210938 1.9498877 -48.73046875 1.92407227 C-44.69732383 1.82933949 -40.66432497 1.72928424 -36.63134766 1.62768555 C-34.89147375 1.5845842 -33.15156427 1.54289363 -31.41162109 1.50268555 C-28.89930535 1.44437679 -26.38716466 1.38086278 -23.875 1.31640625 C-23.10696045 1.29969376 -22.3389209 1.28298126 -21.54760742 1.26576233 C-14.31399771 1.07083792 -7.24101156 -0.15085441 0 0 Z " fill="#657880" transform="translate(516,215)"/>
<path d="M0 0 C0.433125 0.474375 0.86625 0.94875 1.3125 1.4375 C3.02309613 3.23686957 3.02309613 3.23686957 6 4 C5.34 4.66 4.68 5.32 4 6 C2.86804804 13.30896132 2.69738546 20.67919661 2.4375 28.0625 C2.39431641 29.21427734 2.35113281 30.36605469 2.30664062 31.55273438 C2.20149148 34.36839491 2.09934607 37.18412976 2 40 C2.99 40.33 3.98 40.66 5 41 C1.37 41 -2.26 41 -6 41 C-5.01 40.01 -4.02 39.02 -3 38 C-2.53043497 35.08117779 -2.23136642 32.33259054 -2.05078125 29.39453125 C-1.98843796 28.55532639 -1.92609467 27.71612152 -1.86186218 26.85148621 C-1.66582779 24.17256764 -1.48894431 21.49277316 -1.3125 18.8125 C-1.18290021 16.99535244 -1.05205586 15.17829317 -0.91992188 13.36132812 C-0.59883399 8.90844784 -0.29491401 4.45468723 0 0 Z " fill="#6E7E88" transform="translate(367,270)"/>
<path d="M0 0 C0.99 0 1.98 0 3 0 C4.33838733 2.45570175 5.67086232 4.91429916 7 7.375 C7.3815625 8.07367188 7.763125 8.77234375 8.15625 9.4921875 C11 14.7734375 11 14.7734375 11 17 C10.01 17 9.02 17 8 17 C7.67 15.68 7.34 14.36 7 13 C3.37 13 -0.26 13 -4 13 C-4.33 14.32 -4.66 15.64 -5 17 C-5.99 17 -6.98 17 -8 17 C-6.3341708 10.83643195 -3.12194714 5.51740344 0 0 Z " fill="#738489" transform="translate(397,336)"/>
<path d="M0 0 C0.70125 0.28875 1.4025 0.5775 2.125 0.875 C1.135 1.205 0.145 1.535 -0.875 1.875 C-0.813125 3.36 -0.813125 3.36 -0.75 4.875 C-0.7326652 9.11335866 -1.73308838 12.80693985 -2.875 16.875 C-3.535 16.875 -4.195 16.875 -4.875 16.875 C-5.205 17.535 -5.535 18.195 -5.875 18.875 C-6.8340625 19.0915625 -6.8340625 19.0915625 -7.8125 19.3125 C-10.25710855 19.73665035 -10.25710855 19.73665035 -11.875 22.875 C-12.31695138 14.73982097 -11.61991115 8.69015788 -6 2.375 C-3.33340664 -0.14493072 -3.33340664 -0.14493072 0 0 Z " fill="#55707B" transform="translate(257.875,269.125)"/>
<path d="M0 0 C9.41002278 -0.18451025 9.41002278 -0.18451025 14 1 C14.33 2.32 14.66 3.64 15 5 C15.78375 4.95875 16.5675 4.9175 17.375 4.875 C20 5 20 5 22 7 C22.99 7.66 23.98 8.32 25 9 C24.01 9.33 23.02 9.66 22 10 C22.33 10.66 22.66 11.32 23 12 C16.95824947 11.56844639 12.10986905 10.37684613 7 7 C6.67 6.34 6.34 5.68 6 5 C3.67843403 4.59270772 1.3431213 4.25561323 -1 4 C-0.67 2.68 -0.34 1.36 0 0 Z " fill="#779893" transform="translate(332,207)"/>
<path d="M0 0 C0.99 0.99 1.98 1.98 3 3 C0.03 3 -2.94 3 -6 3 C-6.33 3.99 -6.66 4.98 -7 6 C-6.30132812 6.12117188 -5.60265625 6.24234375 -4.8828125 6.3671875 C-3.51769531 6.61855469 -3.51769531 6.61855469 -2.125 6.875 C-1.22007812 7.03742188 -0.31515625 7.19984375 0.6171875 7.3671875 C3 8 3 8 5 10 C4.8125 12.5 4.8125 12.5 4 15 C0.72872414 17.18085057 -0.27376723 17.24887859 -4.0625 17.1875 C-4.94035156 17.18105469 -5.81820313 17.17460937 -6.72265625 17.16796875 C-9 17 -9 17 -11 16 C-11 15.01 -11 14.02 -11 13 C-10.01 13.33 -9.02 13.66 -8 14 C-6.60560336 14.06665376 -5.20830125 14.08538199 -3.8125 14.0625 C-2.554375 14.041875 -1.29625 14.02125 0 14 C0.33 13.01 0.66 12.02 1 11 C0.30132812 10.87882812 -0.39734375 10.75765625 -1.1171875 10.6328125 C-2.02726562 10.46523438 -2.93734375 10.29765625 -3.875 10.125 C-4.77992188 9.96257812 -5.68484375 9.80015625 -6.6171875 9.6328125 C-9 9 -9 9 -11 7 C-10.8125 4.5 -10.8125 4.5 -10 2 C-6.30513897 -0.46324069 -4.36706908 -0.38991688 0 0 Z " fill="#7F9191" transform="translate(460,336)"/>
<path d="M0 0 C19.305 0.495 19.305 0.495 39 1 C30.74637074 6.50241951 16.01344973 4.12136462 6.1875 4.0625 C4.70507966 4.05746824 3.22265764 4.05290834 1.74023438 4.04882812 C-1.8398795 4.0379707 -5.41992843 4.02080135 -9 4 C-9 3.67 -9 3.34 -9 3 C-5.92382812 2.70703125 -5.92382812 2.70703125 -2.84765625 2.4140625 C-2.23792969 2.27742187 -1.62820313 2.14078125 -1 2 C-0.67 1.34 -0.34 0.68 0 0 Z " fill="#BBC9C4" transform="translate(393,233)"/>
<path d="M0 0 C1.22589844 0.01353516 1.22589844 0.01353516 2.4765625 0.02734375 C3.41628906 0.04474609 3.41628906 0.04474609 4.375 0.0625 C4.705 1.0525 5.035 2.0425 5.375 3.0625 C2.405 3.0625 -0.565 3.0625 -3.625 3.0625 C-3.955 4.3825 -4.285 5.7025 -4.625 7.0625 C-3.366875 7.206875 -2.10875 7.35125 -0.8125 7.5 C1.80167123 7.79998686 3.84939892 8.22063297 6.375 9.0625 C7.0625 11.375 7.0625 11.375 7.375 14.0625 C6.2109375 15.71484375 6.2109375 15.71484375 4.375 17.0625 C1.96484375 17.390625 1.96484375 17.390625 -0.6875 17.3125 C-1.56535156 17.29703125 -2.44320313 17.2815625 -3.34765625 17.265625 C-5.625 17.0625 -5.625 17.0625 -7.625 16.0625 C-7.625 15.4025 -7.625 14.7425 -7.625 14.0625 C-3.665 14.0625 0.295 14.0625 4.375 14.0625 C4.045 13.0725 3.715 12.0825 3.375 11.0625 C1.38932292 10.8671875 -0.59635417 10.671875 -2.58203125 10.4765625 C-4.625 10.0625 -4.625 10.0625 -7.625 8.0625 C-7.36938677 5.7193787 -7.03229228 3.38406597 -6.625 1.0625 C-4.21954362 -0.14022819 -2.67503047 -0.03821472 0 0 Z " fill="#89999B" transform="translate(341.625,335.9375)"/>
<path d="M0 0 C5.28 0.99 10.56 1.98 16 3 C15.01 3.66 14.02 4.32 13 5 C12.505 5.495 12.01 5.99 11.5 6.5 C10 8 10 8 7 10 C9.64 10.66 12.28 11.32 15 12 C11.43392453 12.89151887 10.25732217 13.07903829 6.890625 12.44140625 C6.13652344 12.30283203 5.38242187 12.16425781 4.60546875 12.02148438 C3.82816406 11.87001953 3.05085938 11.71855469 2.25 11.5625 C1.45722656 11.41490234 0.66445313 11.26730469 -0.15234375 11.11523438 C-2.10297246 10.75096034 -4.0516893 10.37647488 -6 10 C-5.38125 9.87625 -4.7625 9.7525 -4.125 9.625 C-1.80879168 9.12802644 -1.80879168 9.12802644 0 7 C0.33 6.01 0.66 5.02 1 4 C1.99 3.67 2.98 3.34 4 3 C2.68 2.34 1.36 1.68 0 1 C0 0.67 0 0.34 0 0 Z " fill="#8AA39F" transform="translate(384,216)"/>
<path d="M0 0 C2 1 2 1 2.75 2.9375 C2.87375 3.9584375 2.87375 3.9584375 3 5 C2.34 5.66 1.68 6.32 1 7 C0.83322718 10.58343976 0.83322718 10.58343976 1 14 C0.34 12.68 -0.32 11.36 -1 10 C-4.3 15.61 -7.6 21.22 -11 27 C-12.32 26.67 -13.64 26.34 -15 26 C-10.11994779 17.25928427 -5.23273188 8.53653515 0 0 Z " fill="#657781" transform="translate(414,266)"/>
<path d="M0 0 C8.67805926 -0.45763203 17.07946774 0.32840547 25.6875 1.375 C26.76322266 1.50108643 27.83894531 1.62717285 28.94726562 1.75708008 C30.46416992 1.950802 30.46416992 1.950802 32.01171875 2.1484375 C32.92397217 2.26364746 33.83622559 2.37885742 34.77612305 2.49755859 C37 3 37 3 39 5 C27.78 5 16.56 5 5 5 C5 4.67 5 4.34 5 4 C6.98 4 8.96 4 11 4 C11 3.34 11 2.68 11 2 C7.37 1.67 3.74 1.34 0 1 C0 0.67 0 0.34 0 0 Z " fill="#A3B4B1" transform="translate(443,225)"/>
<path d="M0 0 C1.01964844 0.10828125 2.03929687 0.2165625 3.08984375 0.328125 C6.0625 0.75 6.0625 0.75 8.359375 1.26171875 C12.34372528 1.9814352 16.33540248 2.11801267 20.375 2.3125 C21.21095703 2.35568359 22.04691406 2.39886719 22.90820312 2.44335938 C24.95946935 2.54885307 27.0109648 2.64987315 29.0625 2.75 C29.0625 3.08 29.0625 3.41 29.0625 3.75 C25.4325 4.08 21.8025 4.41 18.0625 4.75 C19.3825 5.41 20.7025 6.07 22.0625 6.75 C15.03539671 7.02289722 8.47148441 5.97312164 1.5625 4.75 C0.45390625 4.55921875 -0.6546875 4.3684375 -1.796875 4.171875 C-4.51150201 3.70383586 -7.22492095 3.22974117 -9.9375 2.75 C-6.33448886 -0.20191107 -4.67228724 -0.54205602 0 0 Z " fill="#EEF3F5" transform="translate(438.9375,209.25)"/>
<path d="M0 0 C-0.33 1.32 -0.66 2.64 -1 4 C-1.66 4 -2.32 4 -3 4 C-3 4.66 -3 5.32 -3 6 C-5.74677565 7.94563275 -7.86667449 8.14159027 -11.125 7.875 C-15 7 -15 7 -16.5 4.9375 C-16.665 4.298125 -16.83 3.65875 -17 3 C-11.9187254 -2.0812746 -6.59137527 -0.94711023 0 0 Z " fill="#44656F" transform="translate(361,193)"/>
<path d="M0 0 C0.66 0 1.32 0 2 0 C2.33 2.64 2.66 5.28 3 8 C-6.31162841 14.33674453 -13.82027127 15.3026092 -25 15 C-21.65287077 11.97941996 -19.05560508 11.54843778 -14.625 11.125 C-8.75947149 10.32844675 -5.86880458 9.4961783 -2 5 C-0.60180488 2.3485518 -0.60180488 2.3485518 0 0 Z " fill="#5D727D" transform="translate(292,298)"/>
<path d="M0 0 C2.31242092 2.16323247 4.0156396 4.37647804 5.6875 7.0625 C6.12449219 7.75472656 6.56148438 8.44695312 7.01171875 9.16015625 C8 11 8 11 8 13 C7.34 13 6.68 13 6 13 C6 12.34 6 11.68 6 11 C5.01 10.67 4.02 10.34 3 10 C3.309375 11.546875 3.309375 11.546875 3.625 13.125 C4.01194403 17.1234216 3.51883076 19.33693757 2 23 C1.01 23 0.02 23 -1 23 C-1.10920422 15.25863399 -0.97159933 7.68604474 0 0 Z " fill="#E9F1F3" transform="translate(370,275)"/>
<path d="M0 0 C-0.33 0.66 -0.66 1.32 -1 2 C-1.58007812 1.86722656 -2.16015625 1.73445313 -2.7578125 1.59765625 C-3.53898437 1.42105469 -4.32015625 1.24445313 -5.125 1.0625 C-5.89070313 0.88847656 -6.65640625 0.71445313 -7.4453125 0.53515625 C-14.22734743 -0.88554526 -20.81270695 -1.29356882 -27.71875 -1.51757812 C-33.78367154 -1.78367154 -33.78367154 -1.78367154 -36 -4 C-25.62902224 -9.18548888 -10.15450598 -3.29081212 0 0 Z " fill="#808A91" transform="translate(426,120)"/>
<path d="M0 0 C1.67542976 0.28604898 3.34385343 0.61781233 5 1 C5 1.66 5 2.32 5 3 C5.99 2.67 6.98 2.34 8 2 C10.09350689 5.4019487 10.17942163 8.05272412 10 12 C9.34 12 8.68 12 8 12 C8 11.34 8 10.68 8 10 C6.02 10.99 4.04 11.98 2 13 C1.47212358 11.02270019 0.95287097 9.04309608 0.4375 7.0625 C0.00244141 5.40927734 0.00244141 5.40927734 -0.44140625 3.72265625 C-0.62574219 2.82417969 -0.81007813 1.92570312 -1 1 C-0.67 0.67 -0.34 0.34 0 0 Z " fill="#546D79" transform="translate(293,276)"/>
<path d="M0 0 C0 1.65 0 3.3 0 5 C0.66 5.33 1.32 5.66 2 6 C-1.465 7.485 -1.465 7.485 -5 9 C-5.39832031 8.51917969 -5.79664063 8.03835938 -6.20703125 7.54296875 C-8.43450247 5.62608175 -9.78834669 5.52258357 -12.6875 5.3125 C-14.8221875 5.1578125 -14.8221875 5.1578125 -17 5 C-17 10.28 -17 15.56 -17 21 C-17.33 21 -17.66 21 -18 21 C-18.02690104 18.20826945 -18.04679053 15.41679652 -18.0625 12.625 C-18.07087891 11.8309375 -18.07925781 11.036875 -18.08789062 10.21875 C-18.11328125 4.2265625 -18.11328125 4.2265625 -17 2 C-13.91015625 1.62109375 -13.91015625 1.62109375 -10.0625 1.4375 C-6.72210094 1.27098977 -3.07350921 0 0 0 Z " fill="#748690" transform="translate(530,287)"/>
<path d="M0 0 C0.2475 0.61875 0.495 1.2375 0.75 1.875 C1.81738099 4.15543159 1.81738099 4.15543159 4.0625 4.9375 C4.701875 5.288125 5.34125 5.63875 6 6 C6.75 8.625 6.75 8.625 7 11 C4.10765685 11.82638376 2.11257569 12 -1 12 C-5 5.5 -5 5.5 -5 1 C-2 0 -2 0 0 0 Z " fill="#546D7B" transform="translate(470,277)"/>
<path d="M0 0 C7.59 0.33 15.18 0.66 23 1 C23 1.33 23 1.66 23 2 C21.02 2.33 19.04 2.66 17 3 C17 3.99 17 4.98 17 6 C10.8894576 6.11269443 5.04829486 5.89604368 -1 5 C-1 4.34 -1 3.68 -1 3 C-0.34 2.67 0.32 2.34 1 2 C0.67 1.34 0.34 0.68 0 0 Z " fill="#EAEFF0" transform="translate(425,219)"/>
<path d="M0 0 C2.4375 1.0625 2.4375 1.0625 4.3125 4 C4.68375 5.010625 5.055 6.02125 5.4375 7.0625 C5.1075 7.7225 4.7775 8.3825 4.4375 9.0625 C3.7775 9.0625 3.1175 9.0625 2.4375 9.0625 C2.1075 8.4025 1.7775 7.7425 1.4375 7.0625 C0.7775 9.3725 0.1175 11.6825 -0.5625 14.0625 C-0.954375 13.44375 -1.34625 12.825 -1.75 12.1875 C-3.83967491 9.73753632 -5.53713327 9.04370002 -8.5625 8.0625 C-7.5725 7.4025 -6.5825 6.7425 -5.5625 6.0625 C-5.8925 5.0725 -6.2225 4.0825 -6.5625 3.0625 C-4.29428795 0.96230366 -3.1394263 0.07657137 0 0 Z " fill="#59717E" transform="translate(476.5625,286.9375)"/>
<path d="M0 0 C11.11208336 1.73073157 20.05932833 10.55869549 27.3515625 18.58984375 C27.89554687 19.38519531 28.43953125 20.18054688 29 21 C28.67 21.99 28.34 22.98 28 24 C27.33355469 23.21496094 26.66710937 22.42992187 25.98046875 21.62109375 C18.45707153 12.96801594 10.48503486 6.81744845 0 2 C0 1.34 0 0.68 0 0 Z " fill="#707D80" transform="translate(425,121)"/>
<path d="M0 0 C0.99 0.33 1.98 0.66 3 1 C2.773125 1.763125 2.54625 2.52625 2.3125 3.3125 C2.1578125 4.6428125 2.1578125 4.6428125 2 6 C3.33378575 7.8354799 3.33378575 7.8354799 5 9 C3.68 9.33 2.36 9.66 1 10 C1 9.34 1 8.68 1 8 C-2.63 7.34 -6.26 6.68 -10 6 C-9.67 4.35 -9.34 2.7 -9 1 C-6.03 1.33 -3.06 1.66 0 2 C0 1.34 0 0.68 0 0 Z " fill="#ECF1F3" transform="translate(347,337)"/>
<path d="M0 0 C0.66 0 1.32 0 2 0 C2.04935824 5.23273331 2.08569949 10.46533176 2.10986328 15.69824219 C2.11993431 17.47919067 2.13359185 19.26012257 2.15087891 21.04101562 C2.17507913 23.59769783 2.18647184 26.15416185 2.1953125 28.7109375 C2.20563507 29.50994476 2.21595764 30.30895203 2.22659302 31.13217163 C2.22699226 33.0895722 2.12241069 35.04643077 2 37 C1.34 37.66 0.68 38.32 0 39 C4.95 39 9.9 39 15 39 C15 39.66 15 40.32 15 41 C9.06 41 3.12 41 -3 41 C-3.33 39.68 -3.66 38.36 -4 37 C-2.02 36.505 -2.02 36.505 0 36 C0 24.12 0 12.24 0 0 Z " fill="#DFE7EC" transform="translate(502,271)"/>
<path d="M0 0 C0.66 0 1.32 0 2 0 C2.639375 0.9075 3.27875 1.815 3.9375 2.75 C7.4703126 7.26771794 12.68825719 8.41857044 18 10 C18 10.33 18 10.66 18 11 C10.87067627 11.47179348 4.90674623 11.42635871 -1 7 C-1.66 6.01 -2.32 5.02 -3 4 C-2.34 3.67 -1.68 3.34 -1 3 C-0.67 2.01 -0.34 1.02 0 0 Z " fill="#5E6F7A" transform="translate(257,301)"/>
<path d="M0 0 C0.94875 0.04125 1.8975 0.0825 2.875 0.125 C1.555 0.455 0.235 0.785 -1.125 1.125 C-1.125 2.115 -1.125 3.105 -1.125 4.125 C1.80324652 5.10108217 3.83113276 5.20726668 6.875 5.125 C6.545 5.785 6.215 6.445 5.875 7.125 C7.855 8.115 9.835 9.105 11.875 10.125 C8.51184208 11.24491797 6.30494063 10.98248516 2.890625 10.12890625 C1.95605469 9.90009766 1.02148438 9.67128906 0.05859375 9.43554688 C-0.90949219 9.18869141 -1.87757813 8.94183594 -2.875 8.6875 C-3.85855469 8.44451172 -4.84210938 8.20152344 -5.85546875 7.95117188 C-8.28083673 7.35071669 -10.70372945 6.74173274 -13.125 6.125 C-13.125 5.795 -13.125 5.465 -13.125 5.125 C-10.485 4.795 -7.845 4.465 -5.125 4.125 C-5.125 3.465 -5.125 2.805 -5.125 2.125 C-3.125 0.125 -3.125 0.125 0 0 Z " fill="#8AA19E" transform="translate(333.125,205.875)"/>
<path d="M0 0 C0 0.66 0 1.32 0 2 C2.64 2 5.28 2 8 2 C8 2.33 8 2.66 8 3 C7.01157104 3.029729 7.01157104 3.029729 6.00317383 3.06005859 C-10.33454164 3.48258807 -10.33454164 3.48258807 -26.51171875 5.59765625 C-29.05119079 6.00827732 -31.43227539 6.06939796 -34 6 C-24.37247301 0.49515165 -10.90486785 -0.19472978 0 0 Z " fill="#6A7C82" transform="translate(288,189)"/>
<path d="M0 0 C-1.8138702 2.30629544 -2.78362781 2.955664 -5.70703125 3.5546875 C-6.73183594 3.66039062 -7.75664062 3.76609375 -8.8125 3.875 C-14.4878648 4.68478603 -17.08015872 5.87385128 -21 10 C-21.66 10.66 -22.32 11.32 -23 12 C-23.33 11.34 -23.66 10.68 -24 10 C-23.67 9.01 -23.34 8.02 -23 7 C-22.34 6.67 -21.68 6.34 -21 6 C-21.66 5.34 -22.32 4.68 -23 4 C-15.23800667 0.07519976 -8.62396205 -0.48661855 0 0 Z " fill="#657880" transform="translate(280,264)"/>
<path d="M0 0 C4.24925258 0.78992516 6.08910865 2.84653437 9 6 C9.78375 5.01 10.5675 4.02 11.375 3 C12.24125 2.01 13.1075 1.02 14 0 C14.66 0 15.32 0 16 0 C14.34509202 4.7101227 14.34509202 4.7101227 12.4375 6.3125 C10.03884917 9.1283075 10.29660539 12.38141426 10 16 C9.01 16 8.02 16 7 16 C6.95875 14.845 6.9175 13.69 6.875 12.5 C6.2629922 7.2273174 3.39745449 3.90655317 0 0 Z " fill="#7B8990" transform="translate(419,337)"/>
<path d="M0 0 C0.70125 0.66 1.4025 1.32 2.125 2 C1.125 3 1.125 3 -2.3125 3.15625 C-7.24925362 3.09454058 -12.01723199 2.32828302 -16.875 1.5 C-17.74511719 1.35691406 -18.61523438 1.21382812 -19.51171875 1.06640625 C-21.63375695 0.71661973 -23.75452028 0.3591135 -25.875 0 C-25.875 -0.33 -25.875 -0.66 -25.875 -1 C-23.16678874 -1.16888623 -20.45845903 -1.33517601 -17.75 -1.5 C-16.98945313 -1.54769531 -16.22890625 -1.59539062 -15.4453125 -1.64453125 C-3.40818279 -2.37090977 -3.40818279 -2.37090977 0 0 Z " fill="#95A8A7" transform="translate(456.875,209)"/>
<path d="M0 0 C0.28875 0.639375 0.5775 1.27875 0.875 1.9375 C1.82823451 4.15206079 1.82823451 4.15206079 4 5 C4 4.34 4 3.68 4 3 C4.99 3.33 5.98 3.66 7 4 C6.67777813 7.0074041 5.99223238 8.00776762 3.8125 10.1875 C0.76946481 12.14856712 -1.42681564 12.66761076 -5 13 C-4.3506938 9.49374651 -2.82074633 7.03457721 -1 4 C-0.30420546 1.80869466 -0.30420546 1.80869466 0 0 Z " fill="#576F78" transform="translate(535,277)"/>
<path d="M0 0 C0.33 0 0.66 0 1 0 C1.07347656 1.37285156 1.07347656 1.37285156 1.1484375 2.7734375 C1.22320312 3.96195312 1.29796875 5.15046875 1.375 6.375 C1.44460938 7.55835938 1.51421875 8.74171875 1.5859375 9.9609375 C1.70217346 13.10562319 1.70217346 13.10562319 4 15 C-0.29 15 -4.58 15 -9 15 C-8.67 11.7 -8.34 8.4 -8 5 C-7.01 6.32 -6.02 7.64 -5 9 C-4.34 8.67 -3.68 8.34 -3 8 C-2.67 8.66 -2.34 9.32 -2 10 C-1.34 10 -0.68 10 0 10 C0 6.7 0 3.4 0 0 Z " fill="#667C86" transform="translate(424,296)"/>
<path d="M0 0 C2.29349068 0.44911697 4.58476218 0.90957944 6.875 1.375 C8.78925781 1.75785156 8.78925781 1.75785156 10.7421875 2.1484375 C14 3 14 3 16 5 C16 5.99 16 6.98 16 8 C9.97099313 7.48758893 3.97995357 6.930215 -2 6 C-2 5.67 -2 5.34 -2 5 C0.31 5 2.62 5 5 5 C3.74458443 2.48916886 2.49936512 2.12874554 0 1 C0 0.67 0 0.34 0 0 Z " fill="#ECF3F3" transform="translate(352,219)"/>
<path d="M0 0 C0.66 0 1.32 0 2 0 C2 3.3 2 6.6 2 10 C1.34 10 0.68 10 0 10 C-0.66 9.01 -1.32 8.02 -2 7 C-3.92441415 6.49468134 -3.92441415 6.49468134 -6.1328125 6.48828125 C-7.34130859 6.43510742 -7.34130859 6.43510742 -8.57421875 6.38085938 C-9.41597656 6.35830078 -10.25773438 6.33574219 -11.125 6.3125 C-11.97449219 6.27833984 -12.82398438 6.24417969 -13.69921875 6.20898438 C-15.79901105 6.12640827 -17.89948564 6.06153022 -20 6 C-20 5.34 -20 4.68 -20 4 C-18.80761719 3.96261719 -17.61523438 3.92523438 -16.38671875 3.88671875 C-14.820281 3.82105968 -13.25387616 3.75461232 -11.6875 3.6875 C-10.90181641 3.66494141 -10.11613281 3.64238281 -9.30664062 3.61914062 C-8.54931641 3.58369141 -7.79199219 3.54824219 -7.01171875 3.51171875 C-6.31522217 3.48553467 -5.61872559 3.45935059 -4.90112305 3.43237305 C-2.50250465 2.88685447 -1.6521458 1.76485214 0 0 Z " fill="#606E75" transform="translate(591,283)"/>
<path d="M0 0 C0.66 0.99 1.32 1.98 2 3 C1.35546875 5.55859375 1.35546875 5.55859375 0.1875 8.4375 C-2.05965539 14.07456216 -3.13694658 18.67066548 -3.5625 24.75 C-3.64628906 25.92046875 -3.73007812 27.0909375 -3.81640625 28.296875 C-3.87699219 29.18890625 -3.93757813 30.0809375 -4 31 C-4.66 31 -5.32 31 -6 31 C-6.56584881 19.49440743 -5.40186939 10.39008211 0 0 Z " fill="#6F7F85" transform="translate(339,152)"/>
<path d="M0 0 C0.99 0.33 1.98 0.66 3 1 C2.67 1.66 2.34 2.32 2 3 C2.66 3.33 3.32 3.66 4 4 C4 4.66 4 5.32 4 6 C3.071875 6.0825 2.14375 6.165 1.1875 6.25 C-2.08509879 6.70257552 -2.08509879 6.70257552 -3.875 9.0625 C-4.431875 10.0215625 -4.431875 10.0215625 -5 11 C-5.99 10.67 -6.98 10.34 -8 10 C-8 10.99 -8 11.98 -8 13 C-9.32 13.33 -10.64 13.66 -12 14 C-10.28842825 7.7242369 -5.24692437 3.49794958 0 0 Z " fill="#9EB1BA" transform="translate(379,168)"/>
<path d="M0 0 C5.66153846 1.47692308 5.66153846 1.47692308 7.375 4.125 C7.684375 5.053125 7.684375 5.053125 8 6 C9.32 4.68 10.64 3.36 12 2 C12.99 2.33 13.98 2.66 15 3 C14.05065487 4.67180274 13.09026687 6.33733936 12.125 8 C11.59132813 8.928125 11.05765625 9.85625 10.5078125 10.8125 C10.01023437 11.534375 9.51265625 12.25625 9 13 C8.34 13 7.68 13 7 13 C6.0204042 11.20856793 5.0413367 9.41684696 4.0625 7.625 C3.51722656 6.62726563 2.97195313 5.62953125 2.41015625 4.6015625 C1.5850241 3.07929654 0.77435609 1.54871217 0 0 Z " fill="#EBF2F5" transform="translate(387,286)"/>
<path d="M0 0 C5.0302076 0.52537724 10.01885239 1.10594786 15 2 C15 2.33 15 2.66 15 3 C12.36 3.66 9.72 4.32 7 5 C7.33 5.66 7.66 6.32 8 7 C6.37419034 6.88601335 4.74932843 6.75844341 3.125 6.625 C2.22007812 6.55539063 1.31515625 6.48578125 0.3828125 6.4140625 C-2 6 -2 6 -4 4 C-3.01 3.34 -2.02 2.68 -1 2 C-0.67 1.34 -0.34 0.68 0 0 Z " fill="#B8C7C3" transform="translate(353,225)"/>
<path d="M0 0 C0.33 0 0.66 0 1 0 C1.33 5.28 1.66 10.56 2 16 C2.99 16.33 3.98 16.66 5 17 C1.37 17 -2.26 17 -6 17 C-5.01 16.01 -4.02 15.02 -3 14 C-2.49453971 11.10242114 -2.49453971 11.10242114 -2.4375 7.9375 C-2.20833333 2.20833333 -2.20833333 2.20833333 0 0 Z " fill="#5C727C" transform="translate(367,294)"/>
<path d="M0 0 C0 0.99 0 1.98 0 3 C-1.91282125 3.84212256 -3.83042473 4.67338864 -5.75 5.5 C-7.35101562 6.19609375 -7.35101562 6.19609375 -8.984375 6.90625 C-12 8 -12 8 -16 8 C-16 7.34 -16 6.68 -16 6 C-13.76953125 4.23828125 -13.76953125 4.23828125 -10.8125 2.3125 C-9.84957031 1.66925781 -8.88664063 1.02601563 -7.89453125 0.36328125 C-4.64512338 -1.16714162 -3.34884005 -1.10811709 0 0 Z " fill="#64767E" transform="translate(589,253)"/>
<path d="M0 0 C4.95 0 9.9 0 15 0 C15 0.33 15 0.66 15 1 C13.02 1 11.04 1 9 1 C9 5.95 9 10.9 9 16 C8.01 16 7.02 16 6 16 C6 11.05 6 6.1 6 1 C4.02 1 2.04 1 0 1 C0 0.67 0 0.34 0 0 Z " fill="#76888D" transform="translate(362,337)"/>
<path d="M0 0 C0.66 0 1.32 0 2 0 C1.67 1.98 1.34 3.96 1 6 C-3.29299643 7.26264601 -5.87831311 6.62950412 -10 5 C-9.34 3.68 -8.68 2.36 -8 1 C-5.36 1 -2.72 1 0 1 C0 0.67 0 0.34 0 0 Z " fill="#EAEEF4" transform="translate(462,337)"/>
<path d="M0 0 C0.99 0.99 1.98 1.98 3 3 C0.03 3 -2.94 3 -6 3 C-6.33 3.99 -6.66 4.98 -7 6 C-5.35 6.33 -3.7 6.66 -2 7 C-2 7.66 -2 8.32 -2 9 C-5.375 9.125 -5.375 9.125 -9 9 C-9.66 8.34 -10.32 7.68 -11 7 C-10.8125 4.5 -10.8125 4.5 -10 2 C-6.30513897 -0.46324069 -4.36706908 -0.38991688 0 0 Z " fill="#7F9697" transform="translate(460,336)"/>
<path d="M0 0 C-0.33 0.66 -0.66 1.32 -1 2 C-6.445 1.505 -6.445 1.505 -12 1 C-12 1.66 -12 2.32 -12 3 C-19.59 3.33 -27.18 3.66 -35 4 C-24.47626085 -1.26186957 -11.50881658 -0.25079746 0 0 Z " fill="#8EA09D" transform="translate(299,205)"/>
<path d="M0 0 C2.64 0.33 5.28 0.66 8 1 C8.6875 3.3125 8.6875 3.3125 9 6 C7.8359375 7.65234375 7.8359375 7.65234375 6 9 C3.58984375 9.328125 3.58984375 9.328125 0.9375 9.25 C0.05964844 9.23453125 -0.81820313 9.2190625 -1.72265625 9.203125 C-4 9 -4 9 -6 8 C-6 7.34 -6 6.68 -6 6 C-2.04 6 1.92 6 6 6 C5.67 5.01 5.34 4.02 5 3 C2.49552484 1.78130071 2.49552484 1.78130071 0 1 C0 0.67 0 0.34 0 0 Z " fill="#7E8D90" transform="translate(340,344)"/>
<path d="M0 0 C0.33 0 0.66 0 1 0 C1.33 2.97 1.66 5.94 2 9 C0.68 9.33 -0.64 9.66 -2 10 C-2.33 11.65 -2.66 13.3 -3 15 C-3.99 15 -4.98 15 -6 15 C-6.33 14.34 -6.66 13.68 -7 13 C-5.92325298 10.71741367 -4.80453884 8.5643566 -3.5625 6.375 C-3.22412109 5.76398438 -2.88574219 5.15296875 -2.53710938 4.5234375 C-1.69853808 3.011647 -0.85017423 1.50529601 0 0 Z " fill="#ECF1F2" transform="translate(403,291)"/>
<path d="M0 0 C0.66 0.33 1.32 0.66 2 1 C1.50628906 1.4846875 1.01257813 1.969375 0.50390625 2.46875 C-4.12505673 7.31193059 -5.879842 10.27115186 -6 17 C-6.66 16.67 -7.32 16.34 -8 16 C-10.09821215 16.39938767 -10.09821215 16.39938767 -12 17 C-10.67191342 11.85557267 -8.5159936 8.95271122 -4.875 5.125 C-4.40707031 4.62742188 -3.93914062 4.12984375 -3.45703125 3.6171875 C-2.31322699 2.40335441 -1.15778377 1.20050642 0 0 Z " fill="#E8EEF2" transform="translate(355,134)"/>
<path d="M0 0 C2.74277578 3.19990508 4.6302836 6.00499382 6 10 C5.21625 9.649375 4.4325 9.29875 3.625 8.9375 C2.75875 8.628125 1.8925 8.31875 1 8 C-1.33075929 8.95865509 -1.33075929 8.95865509 -3 12 C-3.99 10.02 -4.98 8.04 -6 6 C-5.01 5.67 -4.02 5.34 -3 5 C-1.30117552 2.50240018 -1.30117552 2.50240018 0 0 Z " fill="#637984" transform="translate(378,271)"/>
<path d="M0 0 C0.5775 0.763125 1.155 1.52625 1.75 2.3125 C3.81225336 5.00399461 3.81225336 5.00399461 6.1875 6.5625 C8 8 8 8 9 12 C6.03 11.67 3.06 11.34 0 11 C0 7.37 0 3.74 0 0 Z " fill="#556D78" transform="translate(198,299)"/>
<path d="M0 0 C0.80050781 0.22042969 1.60101563 0.44085938 2.42578125 0.66796875 C3.23402344 0.88066406 4.04226563 1.09335937 4.875 1.3125 C5.79732422 1.58126953 5.79732422 1.58126953 6.73828125 1.85546875 C6.40828125 3.17546875 6.07828125 4.49546875 5.73828125 5.85546875 C-1.76941106 6.22469952 -1.76941106 6.22469952 -4.26171875 4.35546875 C-4.59171875 3.86046875 -4.92171875 3.36546875 -5.26171875 2.85546875 C-2.89519796 -0.18501265 -2.89519796 -0.18501265 0 0 Z " fill="#F2F4F7" transform="translate(454.26171875,345.14453125)"/>
<path d="M0 0 C0.66 0 1.32 0 2 0 C2.03758423 1.62010986 2.03758423 1.62010986 2.07592773 3.27294922 C2.16995572 7.27242312 2.27018754 11.27172147 2.37231445 15.27099609 C2.4156808 17.00337626 2.45735463 18.73579963 2.49731445 20.46826172 C2.55497594 22.95553627 2.61868198 25.44259293 2.68359375 27.9296875 C2.70030624 28.70682098 2.71701874 29.48395447 2.73423767 30.28463745 C2.76473429 34.27274216 2.76473429 34.27274216 4 38 C2.02 38.495 2.02 38.495 0 39 C0 26.13 0 13.26 0 0 Z " fill="#62767E" transform="translate(324,271)"/>
<path d="M0 0 C2 1 2 1 2.75 2.9375 C2.8325 3.618125 2.915 4.29875 3 5 C2.34 5.66 1.68 6.32 1 7 C0.83322718 10.58343976 0.83322718 10.58343976 1 14 C0.34 12.68 -0.32 11.36 -1 10 C-2.32 10 -3.64 10 -5 10 C-3.66511872 6.40608886 -2.03977277 3.24509304 0 0 Z " fill="#627785" transform="translate(414,266)"/>
<path d="M0 0 C0.33 0 0.66 0 1 0 C1.33 2.97 1.66 5.94 2 9 C1.34 8.34 0.68 7.68 0 7 C-0.72316406 7.84884766 -0.72316406 7.84884766 -1.4609375 8.71484375 C-2.09257812 9.44832031 -2.72421875 10.18179687 -3.375 10.9375 C-4.31472656 12.03384766 -4.31472656 12.03384766 -5.2734375 13.15234375 C-7 15 -7 15 -9 16 C-7.63498381 12.33357971 -5.97203048 9.08922939 -3.9375 5.75 C-3.41027344 4.87859375 -2.88304687 4.0071875 -2.33984375 3.109375 C-1 1 -1 1 0 0 Z " fill="#DDE8EB" transform="translate(413,275)"/>
<path d="M0 0 C0.99 0.495 0.99 0.495 2 1 C3.02273507 4.62138266 3.10762232 8.06734756 3.0625 11.8125 C3.05347656 12.78832031 3.04445313 13.76414063 3.03515625 14.76953125 C3.02355469 15.50558594 3.01195312 16.24164063 3 17 C2.01 17 1.02 17 0 17 C0 11.39 0 5.78 0 0 Z " fill="#798A92" transform="translate(464,167)"/>
<path d="M0 0 C2.39531135 3.1198191 4.60117791 6.33073142 6.75 9.625 C7.38421875 10.58664062 8.0184375 11.54828125 8.671875 12.5390625 C9.11015625 13.35117187 9.5484375 14.16328125 10 15 C9.67 15.66 9.34 16.32 9 17 C6.00675737 15.9024777 5.15389099 15.32317108 3.75 12.375 C3.5025 11.59125 3.255 10.8075 3 10 C2.34 10 1.68 10 1 10 C1.020625 9.278125 1.04125 8.55625 1.0625 7.8125 C1.00179441 5.08074862 0.60741465 2.65743909 0 0 Z " fill="#637984" transform="translate(384,281)"/>
<path d="M0 0 C1.77049689 -0.05410687 3.54146849 -0.09284119 5.3125 -0.125 C6.29863281 -0.14820313 7.28476562 -0.17140625 8.30078125 -0.1953125 C11 0 11 0 14 2 C14 2.99 14 3.98 14 5 C11.29120665 6.35439668 8.99066732 6.06501451 6 6 C6 4.68 6 3.36 6 2 C3.03 1.505 3.03 1.505 0 1 C0 0.67 0 0.34 0 0 Z " fill="#A2B7B6" transform="translate(474,188)"/>
<path d="M0 0 C-4.66841777 3.11227851 -8.17597138 3.11824029 -13.75 3.0625 C-14.92046875 3.05347656 -16.0909375 3.04445313 -17.296875 3.03515625 C-18.18890625 3.02355469 -19.0809375 3.01195312 -20 3 C-14.3792441 -1.81779077 -6.98561564 -1.65448791 0 0 Z " fill="#7B8A91" transform="translate(287,310)"/>
<path d="M0 0 C0 3.96148814 -1.46894972 5.03505539 -4 8 C-5.00573778 9.32901064 -6.00795408 10.66073801 -7 12 C-7.66 10.68 -8.32 9.36 -9 8 C-9.66 8 -10.32 8 -11 8 C-11 7.34 -11 6.68 -11 6 C-10.37351562 5.73445313 -9.74703125 5.46890625 -9.1015625 5.1953125 C-8.28429687 4.84210938 -7.46703125 4.48890625 -6.625 4.125 C-5.40683594 3.60292969 -5.40683594 3.60292969 -4.1640625 3.0703125 C-1.86197701 2.07553933 -1.86197701 2.07553933 0 0 Z " fill="#DCE5E8" transform="translate(541,284)"/>
<path d="M0 0 C0 2.97 0 5.94 0 9 C-1.46484375 7.73046875 -2.9296875 6.4609375 -4.39453125 5.19140625 C-6.10712971 3.79128769 -6.10712971 3.79128769 -9 3 C-9 2.34 -9 1.68 -9 1 C-5.92677456 0.08941469 -3.19902639 -0.08886184 0 0 Z " fill="#6D7A81" transform="translate(598,266)"/>
<path d="M0 0 C1.10844919 3.32534757 0.84454356 5.62182575 0 9 C-2.875 9.1875 -2.875 9.1875 -6 9 C-6.66 8.01 -7.32 7.02 -8 6 C-7.05125 5.38125 -6.1025 4.7625 -5.125 4.125 C-2.05554891 2.18029031 -2.05554891 2.18029031 0 0 Z " fill="#59747A" transform="translate(600,302)"/>
<path d="M0 0 C0.99 1.32 1.98 2.64 3 4 C2.01 4.495 2.01 4.495 1 5 C0.5359375 6.3921875 0.5359375 6.3921875 0.0625 7.8125 C-0.93578404 10.80735213 -1.98472043 12.61830597 -4 15 C-4.66 14.34 -5.32 13.68 -6 13 C-4.02 8.71 -2.04 4.42 0 0 Z " fill="#6D7B83" transform="translate(458,268)"/>
<path d="M0 0 C7.26 0 14.52 0 22 0 C22 0.33 22 0.66 22 1 C17.05 1.33 12.1 1.66 7 2 C7.66 2.66 8.32 3.32 9 4 C6.36 4 3.72 4 1 4 C0.67 2.68 0.34 1.36 0 0 Z " fill="#4A6168" transform="translate(300,188)"/>
<path d="M0 0 C1.41777182 0.08785338 2.83429039 0.19604647 4.25 0.3125 C5.43335938 0.39951172 5.43335938 0.39951172 6.640625 0.48828125 C9.39184062 1.0849853 10.88035957 2.18663789 13 4 C10.87527424 4.05386629 8.75016348 4.09273071 6.625 4.125 C4.84996094 4.15980469 4.84996094 4.15980469 3.0390625 4.1953125 C0 4 0 4 -2 2 C-1.34 2 -0.68 2 0 2 C0 1.34 0 0.68 0 0 Z " fill="#EEF7FA" transform="translate(268,306)"/>
<path d="M0 0 C5.67276511 -0.29341888 8.99067246 -0.00559652 14 3 C14 3.33 14 3.66 14 4 C12.22925083 4.02705729 10.45838289 4.04642195 8.6875 4.0625 C7.70136719 4.07410156 6.71523437 4.08570313 5.69921875 4.09765625 C3 4 3 4 0 3 C0 2.01 0 1.02 0 0 Z " fill="#F1F4F9" transform="translate(207,306)"/>
<path d="M0 0 C1.95825873 -0.02694851 3.91662226 -0.04637218 5.875 -0.0625 C6.96554687 -0.07410156 8.05609375 -0.08570313 9.1796875 -0.09765625 C12 0 12 0 14 1 C14 1.66 14 2.32 14 3 C9.38 3 4.76 3 0 3 C0 2.01 0 1.02 0 0 Z " fill="#779790" transform="translate(440,226)"/>
<path d="M0 0 C2.31 0.33 4.62 0.66 7 1 C7.33 1.99 7.66 2.98 8 4 C8.66 4.66 9.32 5.32 10 6 C8.72125 6.061875 7.4425 6.12375 6.125 6.1875 C5.40570313 6.22230469 4.68640625 6.25710937 3.9453125 6.29296875 C3.30335938 6.19628906 2.66140625 6.09960938 2 6 C0 3 0 3 0 0 Z " fill="#446773" transform="translate(328,190)"/>
<path d="M0 0 C0 0.33 0 0.66 0 1 C1.65 1.33 3.3 1.66 5 2 C1.86501708 3.85776765 -0.37471432 4.20140476 -4 4 C-4 3.01 -4 2.02 -4 1 C-6.64 1.33 -9.28 1.66 -12 2 C-7.89783794 -0.73477471 -4.73617773 -1.57872591 0 0 Z " fill="#E5EDED" transform="translate(433,194)"/>
<path d="M0 0 C2.15377564 2.62198774 3.40072174 4.64404172 4 8 C3.01 8 2.02 8 1 8 C0.67 7.34 0.34 6.68 0 6 C-0.66 8.31 -1.32 10.62 -2 13 C-5 9.25 -5 9.25 -5 7 C-4.34 7 -3.68 7 -3 7 C-3 6.34 -3 5.68 -3 5 C-2.34 4.67 -1.68 4.34 -1 4 C-0.34786708 1.97536745 -0.34786708 1.97536745 0 0 Z " fill="#677C87" transform="translate(478,288)"/>
<path d="M0 0 C2.64 0.33 5.28 0.66 8 1 C6.515 2.485 6.515 2.485 5 4 C5.99 4.66 6.98 5.32 8 6 C-0.57142857 6.28571429 -0.57142857 6.28571429 -4 4 C-2.35 3.67 -0.7 3.34 1 3 C0.67 2.01 0.34 1.02 0 0 Z " fill="#BACAC5" transform="translate(376,230)"/>
<path d="M0 0 C0 2.97 0 5.94 0 9 C-0.598125 8.236875 -1.19625 7.47375 -1.8125 6.6875 C-3.46959332 4.6516425 -5.10297674 2.8021721 -7 1 C-3.375 -1.125 -3.375 -1.125 0 0 Z " fill="#687780" transform="translate(233,267)"/>
<path d="M0 0 C1.76923828 0.01353516 1.76923828 0.01353516 3.57421875 0.02734375 C4.47785156 0.03894531 5.38148438 0.05054688 6.3125 0.0625 C5.23046875 1.55078125 5.23046875 1.55078125 3.3125 3.0625 C0.17578125 3.35546875 0.17578125 3.35546875 -3.375 3.25 C-5.14423828 3.20939453 -5.14423828 3.20939453 -6.94921875 3.16796875 C-7.85285156 3.13316406 -8.75648438 3.09835937 -9.6875 3.0625 C-9.6875 2.4025 -9.6875 1.7425 -9.6875 1.0625 C-6.26517028 -0.07827657 -3.60076783 -0.03565117 0 0 Z " fill="#809198" transform="translate(273.6875,263.9375)"/>
<path d="M0 0 C0 0.99 0 1.98 0 3 C-2.70879335 4.35439668 -5.00933268 4.06501451 -8 4 C-7.625 2.0625 -7.625 2.0625 -7 0 C-4.3333581 -1.33332095 -2.83319697 -0.67102033 0 0 Z " fill="#ECF3F5" transform="translate(346,347)"/>
<path d="M0 0 C0 3.3 0 6.6 0 10 C-0.66 10 -1.32 10 -2 10 C-5 5.61538462 -5 5.61538462 -5 3 C-2.46153846 0 -2.46153846 0 0 0 Z " fill="#78888B" transform="translate(593,283)"/>
<path d="M0 0 C1.27230469 0.00902344 2.54460937 0.01804688 3.85546875 0.02734375 C5.31919922 0.04474609 5.31919922 0.04474609 6.8125 0.0625 C6.8125 0.3925 6.8125 0.7225 6.8125 1.0625 C1.3675 1.5575 1.3675 1.5575 -4.1875 2.0625 C-2.8675 2.7225 -1.5475 3.3825 -0.1875 4.0625 C-1.46625 4.124375 -2.745 4.18625 -4.0625 4.25 C-4.78179687 4.28480469 -5.50109375 4.31960937 -6.2421875 4.35546875 C-6.88414062 4.25878906 -7.52609375 4.16210938 -8.1875 4.0625 C-8.8475 3.0725 -9.5075 2.0825 -10.1875 1.0625 C-6.62704823 -0.12431726 -3.74941663 -0.03439832 0 0 Z " fill="#DAE2E1" transform="translate(461.1875,211.9375)"/>
<path d="M0 0 C0.598125 0.350625 1.19625 0.70125 1.8125 1.0625 C1.8125 2.0525 1.8125 3.0425 1.8125 4.0625 C-0.4975 4.0625 -2.8075 4.0625 -5.1875 4.0625 C-5.1875 2.7425 -5.1875 1.4225 -5.1875 0.0625 C-2.1875 -0.9375 -2.1875 -0.9375 0 0 Z " fill="#556C7A" transform="translate(532.1875,293.9375)"/>
<path d="M0 0 C1.07765625 0.11988281 2.1553125 0.23976562 3.265625 0.36328125 C4.08546875 0.47027344 4.9053125 0.57726562 5.75 0.6875 C5.75 1.0175 5.75 1.3475 5.75 1.6875 C0.19860651 4.17101814 -4.41524985 3.54080338 -10.25 2.6875 C-6.80273592 -0.56731973 -4.61498646 -0.55179186 0 0 Z " fill="#D7E4E6" transform="translate(439.25,209.3125)"/>
<path d="M0 0 C2 1 2 1 3.125 4.0625 C3.41375 5.031875 3.7025 6.00125 4 7 C1.69 7 -0.62 7 -3 7 C-1.125 1.125 -1.125 1.125 0 0 Z " fill="#DFEEF0" transform="translate(398,340)"/>
<path d="M0 0 C2.15377564 2.62198774 3.40072174 4.64404172 4 8 C3.01 8 2.02 8 1 8 C0.67 6.68 0.34 5.36 0 4 C-3.63 4 -7.26 4 -11 4 C-11 3.67 -11 3.34 -11 3 C-7.37 3 -3.74 3 0 3 C0 2.01 0 1.02 0 0 Z " fill="#91A0A1" transform="translate(404,345)"/>
<path d="M0 0 C0.66 0.33 1.32 0.66 2 1 C1.34 1.66 0.68 2.32 0 3 C0.33 3.66 0.66 4.32 1 5 C-2.37097383 6.49821059 -4.20442119 7 -8 7 C-8 6.34 -8 5.68 -8 5 C-6.3203125 3.67578125 -6.3203125 3.67578125 -4.125 2.3125 C-3.40570312 1.85488281 -2.68640625 1.39726562 -1.9453125 0.92578125 C-1.30335938 0.62027344 -0.66140625 0.31476563 0 0 Z " fill="#738187" transform="translate(581,254)"/>
<path d="M0 0 C0.66 0.66 1.32 1.32 2 2 C1.34 2 0.68 2 0 2 C0 1.34 0 0.68 0 0 Z M3 4 C1.88625 4.474375 0.7725 4.94875 -0.375 5.4375 C-2.26710994 6.25306463 -4.15712709 7.07856355 -6 8 C-6.66 7.34 -7.32 6.68 -8 6 C-8 5.01 -8 4.02 -8 3 C-0.57142857 1.57142857 -0.57142857 1.57142857 3 4 Z " fill="#EFF3F4" transform="translate(585,248)"/>
<path d="M0 0 C0.66 0.33 1.32 0.66 2 1 C0.88333826 4.34998521 0.25305075 4.79340222 -2.5625 6.6875 C-3.20316406 7.12449219 -3.84382813 7.56148437 -4.50390625 8.01171875 C-4.99761719 8.33785156 -5.49132812 8.66398438 -6 9 C-6.33 7.68 -6.66 6.36 -7 5 C-5.35 4.67 -3.7 4.34 -2 4 C-2 3.01 -2 2.02 -2 1 C-1.34 0.67 -0.68 0.34 0 0 Z " fill="#EEF4F5" transform="translate(355,128)"/>
<path d="M0 0 C0.33 1.32 0.66 2.64 1 4 C1.8971875 3.6596875 1.8971875 3.6596875 2.8125 3.3125 C3.8953125 3.1578125 3.8953125 3.1578125 5 3 C5.99 3.99 6.98 4.98 8 6 C5.03 6 2.06 6 -1 6 C-1.33 4.68 -1.66 3.36 -2 2 C-1.34 2 -0.68 2 0 2 C0 1.34 0 0.68 0 0 Z " fill="#596B75" transform="translate(541,305)"/>
<path d="M0 0 C0.99 0.33 1.98 0.66 3 1 C2.34 1 1.68 1 1 1 C1.33 1.99 1.66 2.98 2 4 C0.92745123 6.51698632 -0.54803452 8.66805545 -2 11 C-3.25 9.4375 -3.25 9.4375 -4 7 C-2.93237266 4.42998985 -1.53455057 2.3469597 0 0 Z " fill="#889598" transform="translate(397,336)"/>
<path d="M0 0 C0.99 0 1.98 0 3 0 C3 0.66 3 1.32 3 2 C3.99 2.33 4.98 2.66 6 3 C6 3.33 6 3.66 6 4 C1.38 4 -3.24 4 -8 4 C-8 3.67 -8 3.34 -8 3 C-6.865625 2.87625 -5.73125 2.7525 -4.5625 2.625 C-3.386875 2.41875 -2.21125 2.2125 -1 2 C-0.67 1.34 -0.34 0.68 0 0 Z " fill="#586C75" transform="translate(486,307)"/>
<path d="M0 0 C2.125 0.375 2.125 0.375 4 1 C4.625 3.875 4.625 3.875 5 7 C4.34 7.66 3.68 8.32 3 9 C2.9175 8.401875 2.835 7.80375 2.75 7.1875 C1.79544128 4.4033704 0.42867729 3.56688858 -2 2 C-1.34 1.34 -0.68 0.68 0 0 Z M0 5 C2 6 2 6 2 6 Z " fill="#4D6A79" transform="translate(479,300)"/>
<path d="M0 0 C3.93774177 -0.36630156 5.56539771 -0.30233203 8.875 2 C9.926875 2.99 9.926875 2.99 11 4 C10 5 10 5 8.15234375 5.09765625 C6.1015625 5.06510417 4.05078125 5.03255208 2 5 C2.33 4.01 2.66 3.02 3 2 C2.01 1.34 1.02 0.68 0 0 Z " fill="#9FB3AF" transform="translate(448,207)"/>
<path d="M0 0 C2.31 1.98 4.62 3.96 7 6 C6.67 6.66 6.34 7.32 6 8 C4.68 7.67 3.36 7.34 2 7 C2 6.34 2 5.68 2 5 C1.34 5 0.68 5 0 5 C0 3.35 0 1.7 0 0 Z " fill="#E9EFF1" transform="translate(441,132)"/>
<path d="M0 0 C-1 2 -1 2 -2.8125 2.875 C-5.38820998 4.19965085 -7.03454804 5.89415861 -9 8 C-9.33 7.01 -9.66 6.02 -10 5 C-9.34 4.67 -8.68 4.34 -8 4 C-7.67 3.01 -7.34 2.02 -7 1 C-4.53721199 -0.231394 -2.7204945 -0.07159196 0 0 Z " fill="#E1E9EB" transform="translate(436,336)"/>
<path d="M0 0 C0.66 0.33 1.32 0.66 2 1 C1.34 3.31 0.68 5.62 0 8 C-1.65 7.01 -3.3 6.02 -5 5 C-3.625 3.5 -3.625 3.5 -2 2 C-1.34 2 -0.68 2 0 2 C0 1.34 0 0.68 0 0 Z " fill="#697B82" transform="translate(352,303)"/>
<path d="M0 0 C2.12038635 2.61514317 4.13091744 5.19637616 6 8 C4.68 7.67 3.36 7.34 2 7 C2 8.32 2 9.64 2 11 C1.34 11 0.68 11 0 11 C0 7.37 0 3.74 0 0 Z " fill="#6F8086" transform="translate(198,299)"/>
<path d="M0 0 C1.32 0.99 2.64 1.98 4 3 C3.67 3.99 3.34 4.98 3 6 C0.4375 7.1875 0.4375 7.1875 -2 8 C-2.125 5.125 -2.125 5.125 -2 2 C-1.34 1.34 -0.68 0.68 0 0 Z " fill="#546C7A" transform="translate(478,293)"/>
<path d="M0 0 C-0.99 0.495 -0.99 0.495 -2 1 C-1.67 2.65 -1.34 4.3 -1 6 C-3.31 5.01 -5.62 4.02 -8 3 C-8 2.34 -8 1.68 -8 1 C-5.29120665 -0.35439668 -2.99066732 -0.06501451 0 0 Z " fill="#708086" transform="translate(533,266)"/>
<path d="M0 0 C2.39763185 2.39763185 2.34280586 3.33273498 2.625 6.625 C2.69976562 7.44226563 2.77453125 8.25953125 2.8515625 9.1015625 C2.92503906 10.04128906 2.92503906 10.04128906 3 11 C0.35534962 7.8745041 -0.84414715 4.91211733 -2 1 C-1.34 0.67 -0.68 0.34 0 0 Z " fill="#ECF2F5" transform="translate(469,265)"/>
<path d="M0 0 C1.65 0.33 3.3 0.66 5 1 C4.34 2.32 3.68 3.64 3 5 C1.35 4.67 -0.3 4.34 -2 4 C-1.34 2.68 -0.68 1.36 0 0 Z " fill="#F8FBFA" transform="translate(370,208)"/>
<path d="M0 0 C-0.33 0.66 -0.66 1.32 -1 2 C0.65 2.33 2.3 2.66 4 3 C4 3.33 4 3.66 4 4 C1.03 4 -1.94 4 -5 4 C-5 3.34 -5 2.68 -5 2 C-6.32 1.67 -7.64 1.34 -9 1 C-5.92677456 0.08941469 -3.19902639 -0.08886184 0 0 Z " fill="#E7F1F1" transform="translate(418,196)"/>
<path d="M0 0 C0.99 0 1.98 0 3 0 C2.67 2.31 2.34 4.62 2 7 C0.68 6.01 -0.64 5.02 -2 4 C-2 4.66 -2 5.32 -2 6 C-2.66 5.67 -3.32 5.34 -4 5 C-2.1875 2.5 -2.1875 2.5 0 0 Z " fill="#697F88" transform="translate(541,276)"/>
<path d="M0 0 C1.65 0 3.3 0 5 0 C4.34 1.32 3.68 2.64 3 4 C2.67 3.67 2.34 3.34 2 3 C1.67 3.99 1.34 4.98 1 6 C0.34 6.99 -0.32 7.98 -1 9 C-1.125 2.25 -1.125 2.25 0 0 Z " fill="#6E808D" transform="translate(199,271)"/>
<path d="M0 0 C0.66 0 1.32 0 2 0 C2 0.99 2 1.98 2 3 C3.32 3.33 4.64 3.66 6 4 C6 4.99 6 5.98 6 7 C4.68 7.33 3.36 7.66 2 8 C0.74335022 5.09399739 0 3.20395416 0 0 Z " fill="#ECF2F3" transform="translate(498,264)"/>
<path d="M0 0 C-0.33 1.98 -0.66 3.96 -1 6 C-2.65 6.33 -4.3 6.66 -6 7 C-5.6875 4.625 -5.6875 4.625 -5 2 C-2 0 -2 0 0 0 Z " fill="#E6E9E7" transform="translate(464,337)"/>
<path d="M0 0 C0.763125 0.061875 1.52625 0.12375 2.3125 0.1875 C2.3125 0.8475 2.3125 1.5075 2.3125 2.1875 C3.3025 2.5175 4.2925 2.8475 5.3125 3.1875 C1.6825 3.1875 -1.9475 3.1875 -5.6875 3.1875 C-2.6875 0.1875 -2.6875 0.1875 0 0 Z " fill="#68777A" transform="translate(366.6875,307.8125)"/>
<path d="M0 0 C0.99 1.32 1.98 2.64 3 4 C1.68 5.65 0.36 7.3 -1 9 C-1.66 8.67 -2.32 8.34 -3 8 C-1.125 2.25 -1.125 2.25 0 0 Z " fill="#74878E" transform="translate(446,292)"/>
<path d="M0 0 C0.33 0.99 0.66 1.98 1 3 C-1.57784846 5.64752004 -3.91648098 7.94432065 -7 10 C-5.6062718 5.56541027 -3.39417765 3.12621626 0 0 Z " fill="#E7EEF1" transform="translate(411,281)"/>
<path d="M0 0 C1 2 1 2 1 6 C0.01 6.495 0.01 6.495 -1 7 C-1.65772428 10.02934491 -1.65772428 10.02934491 -2 13 C-2.66 12.01 -3.32 11.02 -4 10 C-3.16130925 6.08610984 -2.22640104 3.33960156 0 0 Z " fill="#677A82" transform="translate(250,274)"/>
<path d="M0 0 C-0.639375 0.28875 -1.27875 0.5775 -1.9375 0.875 C-4.15206079 1.82823451 -4.15206079 1.82823451 -5 4 C-7.31 4 -9.62 4 -12 4 C-12 3.01 -12 2.02 -12 1 C-7.93631321 0.22596442 -4.13574827 -0.0984702 0 0 Z " fill="#A2B5BE" transform="translate(410,163)"/>
<path d="M0 0 C0.33 0.66 0.66 1.32 1 2 C0.34 2 -0.32 2 -1 2 C-1.33 3.32 -1.66 4.64 -2 6 C-2 5.01 -2 4.02 -2 3 C-4.64 2.67 -7.28 2.34 -10 2 C-10 1.67 -10 1.34 -10 1 C-6.59437148 0.22157062 -3.49234244 -0.09978121 0 0 Z " fill="#96A7AD" transform="translate(463,344)"/>
<path d="M0 0 C0.99 0.33 1.98 0.66 3 1 C2.34 2.32 1.68 3.64 1 5 C-0.65 5 -2.3 5 -4 5 C-2.25 1.125 -2.25 1.125 0 0 Z " fill="#657781" transform="translate(288,305)"/>
<path d="M0 0 C0.33 0.66 0.66 1.32 1 2 C1.66 2.33 2.32 2.66 3 3 C2.34 4.32 1.68 5.64 1 7 C-0.65 7 -2.3 7 -4 7 C-2.68 4.69 -1.36 2.38 0 0 Z " fill="#637781" transform="translate(505,304)"/>
<path d="M0 0 C4.42857143 5.14285714 4.42857143 5.14285714 5 9 C2.525 8.01 2.525 8.01 0 7 C0 4.69 0 2.38 0 0 Z " fill="#E8EEF2" transform="translate(380,291)"/>
<path d="M0 0 C0.33 0.99 0.66 1.98 1 3 C1.99 3 2.98 3 4 3 C4 4.98 4 6.96 4 9 C3.34 7.68 2.68 6.36 2 5 C0.68 5 -0.64 5 -2 5 C-1.34 3.35 -0.68 1.7 0 0 Z " fill="#788995" transform="translate(411,271)"/>
<path d="M0 0 C3.96 0 7.92 0 12 0 C12 0.99 12 1.98 12 3 C6.06 2.01 6.06 2.01 0 1 C0 0.67 0 0.34 0 0 Z " fill="#5B6A72" transform="translate(271,265)"/>
<path d="M0 0 C2.4375 0.75 2.4375 0.75 5 2 C5.9375 3.9375 5.9375 3.9375 6 6 C5.01 7.485 5.01 7.485 4 9 C4 8.01 4 7.02 4 6 C3.34 6 2.68 6 2 6 C2 5.01 2 4.02 2 3 C1.34 2.67 0.68 2.34 0 2 C0 1.34 0 0.68 0 0 Z " fill="#EAF3F5" transform="translate(528,270)"/>
<path d="M0 0 C1.4540625 0.0309375 1.4540625 0.0309375 2.9375 0.0625 C1.9375 2.0625 1.9375 2.0625 0.171875 2.68359375 C-2.20400323 3.08649618 -4.40429517 3.16041478 -6.8125 3.125 C-7.61171875 3.11597656 -8.4109375 3.10695312 -9.234375 3.09765625 C-9.83765625 3.08605469 -10.4409375 3.07445312 -11.0625 3.0625 C-11.0625 2.7325 -11.0625 2.4025 -11.0625 2.0625 C-9.928125 1.918125 -8.79375 1.77375 -7.625 1.625 C-3.97252634 1.04829363 -3.54680005 0.07238367 0 0 Z " fill="#E1EDED" transform="translate(280.0625,203.9375)"/>
<path d="M0 0 C1.32 0.33 2.64 0.66 4 1 C3.67 2.32 3.34 3.64 3 5 C0.03 4.505 0.03 4.505 -3 4 C-2.34 3.67 -1.68 3.34 -1 3 C-0.67 2.01 -0.34 1.02 0 0 Z " fill="#E6E9ED" transform="translate(384,195)"/>
<path d="M0 0 C0.33 0 0.66 0 1 0 C1.25 2.75 1.25 2.75 1 6 C-1 8.375 -1 8.375 -3 10 C-3.66 9.34 -4.32 8.68 -5 8 C-4.0409375 7.13375 -4.0409375 7.13375 -3.0625 6.25 C-1.01776132 4.01937599 -0.41794801 2.92563609 0 0 Z " fill="#E4EBED" transform="translate(228,298)"/>
<path d="M0 0 C3.63 0.33 7.26 0.66 11 1 C9.68 1.33 8.36 1.66 7 2 C7 2.66 7 3.32 7 4 C4.69 3.34 2.38 2.68 0 2 C0 1.34 0 0.68 0 0 Z " fill="#5D6F77" transform="translate(437,213)"/>
<path d="M0 0 C0.33 0.66 0.66 1.32 1 2 C-0.2739589 4.03833424 -1.61061923 6.03852126 -3 8 C-3.66 8 -4.32 8 -5 8 C-4.67 6.35 -4.34 4.7 -4 3 C-3.01 3 -2.02 3 -1 3 C-0.67 2.01 -0.34 1.02 0 0 Z " fill="#E8F4F6" transform="translate(440,302)"/>
<path d="M0 0 C2.625 -0.1875 2.625 -0.1875 5 0 C4.67 1.32 4.34 2.64 4 4 C1.03 3.505 1.03 3.505 -2 3 C-1.34 2.01 -0.68 1.02 0 0 Z " fill="#A6BBB6" transform="translate(348,225)"/>
<path d="M0 0 C3.125 -0.1875 3.125 -0.1875 6 0 C6 0.66 6 1.32 6 2 C3.29120665 3.35439668 0.99066732 3.06501451 -2 3 C-1.34 2.01 -0.68 1.02 0 0 Z " fill="#526C7B" transform="translate(458,216)"/>
<path d="M0 0 C3.3 0 6.6 0 10 0 C6 3 6 3 2.75 2.6875 C1.8425 2.460625 0.935 2.23375 0 2 C0 1.34 0 0.68 0 0 Z " fill="#60747B" transform="translate(362,203)"/>
<path d="M0 0 C0.66 0.99 1.32 1.98 2 3 C0.625 6.6875 0.625 6.6875 -1 10 C-2.1875 8.375 -2.1875 8.375 -3 6 C-1.625 2.75 -1.625 2.75 0 0 Z " fill="#7D8C93" transform="translate(339,152)"/>
<path d="M0 0 C0.33 0 0.66 0 1 0 C1.125 5.75 1.125 5.75 0 8 C-0.99 8 -1.98 8 -3 8 C-1.125 2.25 -1.125 2.25 0 0 Z " fill="#849194" transform="translate(392,345)"/>
<path d="M0 0 C0.66 0 1.32 0 2 0 C0.75023244 3.65316671 0.32901247 4.78065836 -3 7 C-3.33 6.34 -3.66 5.68 -4 5 C-2.71937515 3.2925002 -1.38232443 1.62626404 0 0 Z " fill="#828F95" transform="translate(433,337)"/>
<path d="M0 0 C1.0625 1.875 1.0625 1.875 2 4 C1.67 4.66 1.34 5.32 1 6 C-2.0625 6.625 -2.0625 6.625 -5 7 C-4.360625 6.21625 -3.72125 5.4325 -3.0625 4.625 C-1.01857687 2.20460719 -1.01857687 2.20460719 0 0 Z " fill="#6A7D85" transform="translate(440,304)"/>
<path d="M0 0 C1.10844919 3.32534757 0.84454356 5.62182575 0 9 C-1.32 7.35 -2.64 5.7 -4 4 C-2.68 2.68 -1.36 1.36 0 0 Z " fill="#7E8B8D" transform="translate(600,302)"/>
<path d="M0 0 C-1 1.5 -1 1.5 -3 3 C-5.71846235 3.27345479 -8.25677199 3.13491285 -11 3 C-11 2.67 -11 2.34 -11 2 C-9.35 2 -7.7 2 -6 2 C-6 1.34 -6 0.68 -6 0 C-3 -1 -3 -1 0 0 Z " fill="#EBF2EF" transform="translate(395,229)"/>
<path d="M0 0 C-2.93127462 1.95418308 -4.55834679 2.64700993 -8 3 C-8.66 2.34 -9.32 1.68 -10 1 C-6.1496895 -1.56687367 -4.41430237 -0.83288724 0 0 Z " fill="#567179" transform="translate(368,194)"/>
<path d="M0 0 C0.33 0 0.66 0 1 0 C0.67 3.3 0.34 6.6 0 10 C-0.66 9.34 -1.32 8.68 -2 8 C-1.69347955 5.0574037 -1.32728846 2.65457692 0 0 Z " fill="#76868B" transform="translate(336,160)"/>
<path d="M0 0 C0.99 0 1.98 0 3 0 C2.625 2.4375 2.625 2.4375 2 5 C1.01 5.495 1.01 5.495 0 6 C-0.66 5.34 -1.32 4.68 -2 4 C-1.34 4 -0.68 4 0 4 C0 2.68 0 1.36 0 0 Z " fill="#869C9E" transform="translate(462,346)"/>
<path d="M0 0 C1.98 0 3.96 0 6 0 C4.02 0.99 4.02 0.99 2 2 C2 2.99 2 3.98 2 5 C1.01 5 0.02 5 -1 5 C-0.67 3.35 -0.34 1.7 0 0 Z " fill="#D6DFE2" transform="translate(338,338)"/>
<path d="M0 0 C1.32 0.33 2.64 0.66 4 1 C4 1.99 4 2.98 4 4 C1.03 3.505 1.03 3.505 -2 3 C-1.34 2.67 -0.68 2.34 0 2 C0 1.34 0 0.68 0 0 Z " fill="#E3EAEE" transform="translate(268,306)"/>
<path d="M0 0 C1.2065625 0.0309375 1.2065625 0.0309375 2.4375 0.0625 C1.7775 1.7125 1.1175 3.3625 0.4375 5.0625 C-1.5625 4.0625 -1.5625 4.0625 -3.5625 1.0625 C-2.5625 0.0625 -2.5625 0.0625 0 0 Z " fill="#4D6E7A" transform="translate(222.5625,285.9375)"/>
<path d="M0 0 C0.66 0.33 1.32 0.66 2 1 C0.25 6.75 0.25 6.75 -2 9 C-2 7.02 -2 5.04 -2 3 C-1.34 3 -0.68 3 0 3 C0 2.01 0 1.02 0 0 Z " fill="#E7F0F5" transform="translate(454,272)"/>
<path d="M0 0 C2.97 0 5.94 0 9 0 C6.4345406 2.5654594 4.52313332 2.54046087 1 3 C0.67 2.01 0.34 1.02 0 0 Z " fill="#566B6E" transform="translate(503,266)"/>
<path d="M0 0 C2.875 -0.1875 2.875 -0.1875 6 0 C6.66 0.99 7.32 1.98 8 3 C5.36 3 2.72 3 0 3 C0 2.01 0 1.02 0 0 Z " fill="#456A71" transform="translate(301,189)"/>
</svg>
